<svg xmlns="http://www.w3.org/2000/svg" width="439.15338134765625" height="563.990478515625" viewBox="176.9998016357422 -261.6016540527344 439.15338134765625 563.990478515625"><title>Neo4j Graph Visualization</title><desc>Created using Neo4j (http://www.neo4j.com/)</desc><g class="layer relationships"><g class="relationship" transform="translate(206.57398235783188 -174.98643263956262) rotate(334.34102691729504)"><path class="b-outline" fill="#A5ABB6" stroke="none" d="M 25 0.5 L 54.46762099685765 0.5 L 54.46762099685765 -0.5 L 25 -0.5 Z M 71.58871474685765 0.5 L 101.0563357437153 0.5 L 101.0563357437153 3.5 L 108.0563357437153 0 L 101.0563357437153 -3.5 L 101.0563357437153 -0.5 L 71.58871474685765 -0.5 Z"/><text text-anchor="middle" pointer-events="none" font-size="8px" fill="#000000" x="63.02816787185765" y="3" font-family="Helvetica Neue, Helvetica, Arial, sans-serif">0.7</text></g><g class="relationship" transform="translate(206.074699731823 -74.02199670512636) rotate(333.3355939860189)"><path class="b-outline" fill="#A5ABB6" stroke="none" d="M 25 0.5 L 55.06205760795406 0.5 L 55.06205760795406 -0.5 L 25 -0.5 Z M 72.18315135795406 0.5 L 102.24520896590812 0.5 L 102.24520896590812 3.5 L 109.24520896590812 0 L 102.24520896590812 -3.5 L 102.24520896590812 -0.5 L 72.18315135795406 -0.5 Z"/><text text-anchor="middle" pointer-events="none" font-size="8px" fill="#000000" x="63.62260448295406" y="3" font-family="Helvetica Neue, Helvetica, Arial, sans-serif">0.8</text></g><g class="relationship" transform="translate(206.08922636974287 26.33840804544718) rotate(333.5293060448673)"><path class="b-outline" fill="#A5ABB6" stroke="none" d="M 25 0.5 L 54.5831047458456 0.5 L 54.5831047458456 -0.5 L 25 -0.5 Z M 71.7041984958456 0.5 L 101.2873032416912 0.5 L 101.2873032416912 3.5 L 108.2873032416912 0 L 101.2873032416912 -3.5 L 101.2873032416912 -0.5 L 71.7041984958456 -0.5 Z"/><text text-anchor="middle" pointer-events="none" font-size="8px" fill="#000000" x="63.1436516208456" y="3" font-family="Helvetica Neue, Helvetica, Arial, sans-serif">0.7</text></g><g class="relationship" transform="translate(206.08922636974287 26.33840804544718) rotate(380.866900041989)"><path class="b-outline" fill="#A5ABB6" stroke="none" d="M 25 0.5 L 52.56775203611865 0.5 L 52.56775203611865 -0.5 L 25 -0.5 Z M 69.68884578611865 0.5 L 97.2565978222373 0.5 L 97.2565978222373 3.5 L 104.2565978222373 0 L 97.2565978222373 -3.5 L 97.2565978222373 -0.5 L 69.68884578611865 -0.5 Z"/><text text-anchor="middle" pointer-events="none" font-size="8px" fill="#000000" x="61.12829891111865" y="3" font-family="Helvetica Neue, Helvetica, Arial, sans-serif">0.9</text></g><g class="relationship" transform="translate(205.99979536283246 125.77354349757825) rotate(380.8208630938851)"><path class="b-outline" fill="#A5ABB6" stroke="none" d="M 25 0.5 L 52.824651077424264 0.5 L 52.824651077424264 -0.5 L 25 -0.5 Z M 69.94574482742426 0.5 L 97.77039590484853 0.5 L 97.77039590484853 3.5 L 104.77039590484853 0 L 97.77039590484853 -3.5 L 97.77039590484853 -0.5 L 69.94574482742426 -0.5 Z"/><text text-anchor="middle" pointer-events="none" font-size="8px" fill="#000000" x="61.385197952424264" y="3" font-family="Helvetica Neue, Helvetica, Arial, sans-serif">0.9</text></g><g class="relationship" transform="translate(206.14955880218122 223.15216488152709) rotate(381.5231750153703)"><path class="b-outline" fill="#A5ABB6" stroke="none" d="M 25 0.5 L 52.53324280248775 0.5 L 52.53324280248775 -0.5 L 25 -0.5 Z M 69.65433655248775 0.5 L 97.1875793549755 0.5 L 97.1875793549755 3.5 L 104.1875793549755 0 L 97.1875793549755 -3.5 L 97.1875793549755 -0.5 L 69.65433655248775 -0.5 Z"/><text text-anchor="middle" pointer-events="none" font-size="8px" fill="#000000" x="61.09378967748775" y="3" font-family="Helvetica Neue, Helvetica, Arial, sans-serif">0.6</text></g><g class="relationship" transform="translate(326.50927543830727 -232.60165593379935) rotate(360.5778651418791)"><path class="b-outline" fill="#A5ABB6" stroke="none" d="M 25 0.5 L 56.043566926813554 0.5 L 56.043566926813554 -0.5 L 25 -0.5 Z M 73.16466067681355 0.5 L 104.20822760362711 0.5 L 104.20822760362711 3.5 L 111.20822760362711 0 L 104.20822760362711 -3.5 L 104.20822760362711 -0.5 L 73.16466067681355 -0.5 Z"/><text text-anchor="middle" pointer-events="none" font-size="8px" fill="#000000" x="64.60411380181355" y="3" font-family="Helvetica Neue, Helvetica, Arial, sans-serif">0.5</text></g><g class="relationship" transform="translate(326.50927543830727 -232.60165593379935) rotate(395.8733671727912)"><path class="b-outline" fill="#A5ABB6" stroke="none" d="M 25 0.5 L 72.0452353952541 0.5 L 72.0452353952541 -0.5 L 25 -0.5 Z M 89.1663291452541 0.5 L 136.2115645405082 0.5 L 136.2115645405082 3.5 L 143.2115645405082 0 L 136.2115645405082 -3.5 L 136.2115645405082 -0.5 L 89.1663291452541 -0.5 Z"/><text text-anchor="middle" pointer-events="none" font-size="8px" fill="#000000" x="80.6057822702541" y="3" font-family="Helvetica Neue, Helvetica, Arial, sans-serif">0.7</text></g><g class="relationship" transform="translate(326.04297735738777 -134.26640303347978) rotate(360.098869392142)"><path class="b-outline" fill="#A5ABB6" stroke="none" d="M 25 0.5 L 56.3248066495633 0.5 L 56.3248066495633 -0.5 L 25 -0.5 Z M 73.4459003995633 0.5 L 104.7707070491266 0.5 L 104.7707070491266 3.5 L 111.7707070491266 0 L 104.7707070491266 -3.5 L 104.7707070491266 -0.5 L 73.4459003995633 -0.5 Z"/><text text-anchor="middle" pointer-events="none" font-size="8px" fill="#000000" x="64.8853535245633" y="3" font-family="Helvetica Neue, Helvetica, Arial, sans-serif">0.6</text></g><g class="relationship" transform="translate(325.4030178119691 -33.0730755004422) rotate(360.5014281837962)"><path class="b-outline" fill="#A5ABB6" stroke="none" d="M 25 0.5 L 39.04037802647027 0.5 L 39.04037802647027 -0.5 L 25 -0.5 Z M 56.16147177647027 0.5 L 70.20184980294054 0.5 L 70.20184980294054 3.5 L 77.20184980294054 0 L 70.20184980294054 -3.5 L 70.20184980294054 -0.5 L 56.16147177647027 -0.5 Z"/><text text-anchor="middle" pointer-events="none" font-size="8px" fill="#000000" x="47.60092490147027" y="3" font-family="Helvetica Neue, Helvetica, Arial, sans-serif">0.8</text></g><g class="relationship" transform="translate(326.86793656374397 72.37938158481852) rotate(313.9325770160189)"><path class="b-outline" fill="#A5ABB6" stroke="none" d="M 25 0.5 L 60.53340057187479 0.5 L 60.53340057187479 -0.5 L 25 -0.5 Z M 77.6544943218748 0.5 L 113.18789489374959 0.5 L 113.18789489374959 3.5 L 120.18789489374959 0 L 113.18789489374959 -3.5 L 113.18789489374959 -0.5 L 77.6544943218748 -0.5 Z"/><text text-anchor="middle" pointer-events="none" font-size="8px" fill="#000000" x="69.0939474468748" y="3" font-family="Helvetica Neue, Helvetica, Arial, sans-serif">0.8</text></g><g class="relationship" transform="translate(326.86793656374397 72.37938158481852) rotate(360.38898772468974)"><path class="b-outline" fill="#A5ABB6" stroke="none" d="M 25 0.5 L 55.80698620736625 0.5 L 55.80698620736625 -0.5 L 25 -0.5 Z M 72.92807995736625 0.5 L 103.7350661647325 0.5 L 103.7350661647325 3.5 L 110.7350661647325 0 L 103.7350661647325 -3.5 L 103.7350661647325 -0.5 L 72.92807995736625 -0.5 Z"/><text text-anchor="middle" pointer-events="none" font-size="8px" fill="#000000" x="64.36753308236625" y="3" font-family="Helvetica Neue, Helvetica, Arial, sans-serif">0.9</text></g><g class="relationship" transform="translate(326.86793656374397 72.37938158481852) rotate(391.6125853465984)"><path class="b-outline" fill="#A5ABB6" stroke="none" d="M 25 0.5 L 84.68614111562471 0.5 L 84.68614111562471 -0.5 L 25 -0.5 Z M 101.80723486562471 0.5 L 161.49337598124941 0.5 L 161.49337598124941 3.5 L 168.49337598124941 0 L 161.49337598124941 -3.5 L 161.49337598124941 -0.5 L 101.80723486562471 -0.5 Z"/><text text-anchor="middle" pointer-events="none" font-size="8px" fill="#000000" x="93.24668799062471" y="3" font-family="Helvetica Neue, Helvetica, Arial, sans-serif">0.6</text></g><g class="relationship" transform="translate(326.86793656374397 72.37938158481852) rotate(415.8617286377199)"><path class="b-outline" fill="#A5ABB6" stroke="none" d="M 25 0.5 L 109.3680733938203 0.5 L 109.3680733938203 -0.5 L 25 -0.5 Z M 126.4891671438203 0.5 L 210.8572405376406 0.5 L 210.8572405376406 3.5 L 217.8572405376406 0 L 210.8572405376406 -3.5 L 210.8572405376406 -0.5 L 126.4891671438203 -0.5 Z"/><text text-anchor="middle" pointer-events="none" font-size="8px" fill="#000000" x="117.9286202688203" y="3" font-family="Helvetica Neue, Helvetica, Arial, sans-serif">0.7</text></g><g class="relationship" transform="translate(327.2957054896179 171.90008509583726) rotate(296.1742400113934)"><path class="b-outline" fill="#A5ABB6" stroke="none" d="M 25 0.5 L 101.63782276920682 0.5 L 101.63782276920682 -0.5 L 25 -0.5 Z M 118.75891651920682 0.5 L 195.39673928841364 0.5 L 195.39673928841364 3.5 L 202.39673928841364 0 L 195.39673928841364 -3.5 L 195.39673928841364 -0.5 L 118.75891651920682 -0.5 Z"/><text text-anchor="middle" pointer-events="none" font-size="8px" fill="#000000" x="110.19836964420682" y="3" font-family="Helvetica Neue, Helvetica, Arial, sans-serif">0.2</text></g><g class="relationship" transform="translate(327.2957054896179 171.90008509583726) rotate(323.9183353281228)"><path class="b-outline" fill="#A5ABB6" stroke="none" d="M 25 0.5 L 71.6487989678161 0.5 L 71.6487989678161 -0.5 L 25 -0.5 Z M 88.7698927178161 0.5 L 135.4186916856322 0.5 L 135.4186916856322 3.5 L 142.4186916856322 0 L 135.4186916856322 -3.5 L 135.4186916856322 -0.5 L 88.7698927178161 -0.5 Z"/><text text-anchor="middle" pointer-events="none" font-size="8px" fill="#000000" x="80.2093458428161" y="3" font-family="Helvetica Neue, Helvetica, Arial, sans-serif">0.4</text></g><g class="relationship" transform="translate(327.2957054896179 171.90008509583726) rotate(360.663484310811)"><path class="b-outline" fill="#A5ABB6" stroke="none" d="M 25 0.5 L 70.1217015156073 0.5 L 70.1217015156073 -0.5 L 25 -0.5 Z M 87.2427952656073 0.5 L 132.3644967812146 0.5 L 132.3644967812146 3.5 L 139.3644967812146 0 L 132.3644967812146 -3.5 L 132.3644967812146 -0.5 L 87.2427952656073 -0.5 Z"/><text text-anchor="middle" pointer-events="none" font-size="8px" fill="#000000" x="78.6822483906073" y="3" font-family="Helvetica Neue, Helvetica, Arial, sans-serif">0.8</text></g><g class="relationship" transform="translate(327.2957054896179 171.90008509583726) rotate(396.75973476440834)"><path class="b-outline" fill="#A5ABB6" stroke="none" d="M 25 0.5 L 72.73094263834831 0.5 L 72.73094263834831 -0.5 L 25 -0.5 Z M 89.85203638834831 0.5 L 137.58297902669662 0.5 L 137.58297902669662 3.5 L 144.58297902669662 0 L 137.58297902669662 -3.5 L 137.58297902669662 -0.5 L 89.85203638834831 -0.5 Z"/><text text-anchor="middle" pointer-events="none" font-size="8px" fill="#000000" x="81.29148951334831" y="3" font-family="Helvetica Neue, Helvetica, Arial, sans-serif">0.6</text></g><g class="relationship" transform="translate(326.32879127298565 270.54818520313677) rotate(329.66400696020946)"><path class="b-outline" fill="#A5ABB6" stroke="none" d="M 25 0.5 L 83.71313001310766 0.5 L 83.71313001310766 -0.5 L 25 -0.5 Z M 100.83422376310766 0.5 L 159.54735377621532 0.5 L 159.54735377621532 3.5 L 166.54735377621532 0 L 159.54735377621532 -3.5 L 159.54735377621532 -0.5 L 100.83422376310766 -0.5 Z"/><text text-anchor="middle" pointer-events="none" font-size="8px" fill="#000000" x="92.27367688810766" y="3" font-family="Helvetica Neue, Helvetica, Arial, sans-serif">0.9</text></g><g class="relationship" transform="translate(326.32879127298565 270.54818520313677) rotate(361.189327026798)"><path class="b-outline" fill="#A5ABB6" stroke="none" d="M 25 0.5 L 56.36853567861807 0.5 L 56.36853567861807 -0.5 L 25 -0.5 Z M 73.48962942861807 0.5 L 104.85816510723615 0.5 L 104.85816510723615 3.5 L 111.85816510723615 0 L 104.85816510723615 -3.5 L 104.85816510723615 -0.5 L 73.48962942861807 -0.5 Z"/><text text-anchor="middle" pointer-events="none" font-size="8px" fill="#000000" x="64.92908255361807" y="3" font-family="Helvetica Neue, Helvetica, Arial, sans-serif">0.7</text></g><g class="relationship" transform="translate(462.710575528205 -231.2279308000447) rotate(360.7100023290922)"><path class="b-outline" fill="#A5ABB6" stroke="none" d="M 25 0.5 L 49.85246380939836 0.5 L 49.85246380939836 -0.5 L 25 -0.5 Z M 66.97355755939836 0.5 L 91.82602136879672 0.5 L 91.82602136879672 3.5 L 98.82602136879672 0 L 91.82602136879672 -3.5 L 91.82602136879672 -0.5 L 66.97355755939836 -0.5 Z"/><text text-anchor="middle" pointer-events="none" font-size="8px" fill="#000000" x="58.41301068439836" y="3" font-family="Helvetica Neue, Helvetica, Arial, sans-serif">0.6</text></g><g class="relationship" transform="translate(462.710575528205 -231.2279308000447) rotate(411.69430804487797)"><path class="b-outline" fill="#A5ABB6" stroke="none" d="M 25 0.5 L 87.81256828105232 0.5 L 87.81256828105232 -0.5 L 25 -0.5 Z M 104.93366203105232 0.5 L 167.74623031210464 0.5 L 167.74623031210464 3.5 L 174.74623031210464 0 L 167.74623031210464 -3.5 L 167.74623031210464 -0.5 L 104.93366203105232 -0.5 Z"/><text text-anchor="middle" pointer-events="none" font-size="8px" fill="#000000" x="96.37311515605232" y="3" font-family="Helvetica Neue, Helvetica, Arial, sans-serif">0.9</text></g><g class="relationship" transform="translate(462.8134807766594 -134.030392107845) rotate(322.2865499235245)"><path class="b-outline" fill="#A5ABB6" stroke="none" d="M 25 0.5 L 66.13231338608911 0.5 L 66.13231338608911 -0.5 L 25 -0.5 Z M 83.25340713608911 0.5 L 124.38572052217822 0.5 L 124.38572052217822 3.5 L 131.38572052217822 0 L 124.38572052217822 -3.5 L 124.38572052217822 -0.5 L 83.25340713608911 -0.5 Z"/><text text-anchor="middle" pointer-events="none" font-size="8px" fill="#000000" x="74.69286026108911" y="3" font-family="Helvetica Neue, Helvetica, Arial, sans-serif">0.2</text></g><g class="relationship" transform="translate(462.8134807766594 -134.030392107845) rotate(385.70304873248415)"><path class="b-outline" fill="#A5ABB6" stroke="none" d="M 25 0.5 L 56.587502863171764 0.5 L 56.587502863171764 -0.5 L 25 -0.5 Z M 73.70859661317176 0.5 L 105.29609947634353 0.5 L 105.29609947634353 3.5 L 112.29609947634353 0 L 105.29609947634353 -3.5 L 105.29609947634353 -0.5 L 73.70859661317176 -0.5 Z"/><text text-anchor="middle" pointer-events="none" font-size="8px" fill="#000000" x="65.14804973817176" y="3" font-family="Helvetica Neue, Helvetica, Arial, sans-serif">0.4</text></g><g class="relationship" transform="translate(427.60095381872577 -32.17865999203015) rotate(378.0542685080845)"><path class="b-outline" fill="#A5ABB6" stroke="none" d="M 25 0.5 L 71.84686409430988 0.5 L 71.84686409430988 -0.5 L 25 -0.5 Z M 88.96795784430988 0.5 L 135.81482193861976 0.5 L 135.81482193861976 3.5 L 142.81482193861976 0 L 135.81482193861976 -3.5 L 135.81482193861976 -0.5 L 88.96795784430988 -0.5 Z"/><text text-anchor="middle" pointer-events="none" font-size="8px" fill="#000000" x="80.40741096930988" y="3" font-family="Helvetica Neue, Helvetica, Arial, sans-serif">1.0</text></g><g class="relationship" transform="translate(462.5998745831346 73.30089568922087) rotate(378.3809902605684)"><path class="b-outline" fill="#A5ABB6" stroke="none" d="M 25 0.5 L 53.30228195680536 0.5 L 53.30228195680536 -0.5 L 25 -0.5 Z M 70.42337570680536 0.5 L 98.72565766361072 0.5 L 98.72565766361072 3.5 L 105.72565766361072 0 L 98.72565766361072 -3.5 L 98.72565766361072 -0.5 L 70.42337570680536 -0.5 Z"/><text text-anchor="middle" pointer-events="none" font-size="8px" fill="#000000" x="61.86282883180536" y="3" font-family="Helvetica Neue, Helvetica, Arial, sans-serif">1.0</text></g><g class="relationship" transform="translate(491.6491820774328 173.8033810897609) rotate(301.8098080464722)"><path class="b-outline" fill="#A5ABB6" stroke="none" d="M 25 0.5 L 78.53301359152607 0.5 L 78.53301359152607 -0.5 L 25 -0.5 Z M 95.65410734152607 0.5 L 149.18712093305214 0.5 L 149.18712093305214 3.5 L 156.18712093305214 0 L 149.18712093305214 -3.5 L 149.18712093305214 -0.5 L 95.65410734152607 -0.5 Z"/><text text-anchor="middle" pointer-events="none" font-size="8px" fill="#000000" x="87.09356046652607" y="3" font-family="Helvetica Neue, Helvetica, Arial, sans-serif">0.3</text></g><g class="relationship" transform="translate(491.6491820774328 173.8033810897609) rotate(328.0375899035446)"><path class="b-outline" fill="#A5ABB6" stroke="none" d="M 25 0.5 L 43.931504157260285 0.5 L 43.931504157260285 -0.5 L 25 -0.5 Z M 61.052597907260285 0.5 L 79.98410206452057 0.5 L 79.98410206452057 3.5 L 86.98410206452057 0 L 79.98410206452057 -3.5 L 79.98410206452057 -0.5 L 61.052597907260285 -0.5 Z"/><text text-anchor="middle" pointer-events="none" font-size="8px" fill="#000000" x="52.492051032260285" y="3" font-family="Helvetica Neue, Helvetica, Arial, sans-serif">0.6</text></g><g class="relationship" transform="translate(491.6491820774328 173.8033810897609) rotate(385.8892050301354)"><path class="b-outline" fill="#A5ABB6" stroke="none" d="M 25 0.5 L 40.73097358486191 0.5 L 40.73097358486191 -0.5 L 25 -0.5 Z M 57.85206733486191 0.5 L 73.58304091972381 0.5 L 73.58304091972381 3.5 L 80.58304091972381 0 L 73.58304091972381 -3.5 L 73.58304091972381 -0.5 L 57.85206733486191 -0.5 Z"/><text text-anchor="middle" pointer-events="none" font-size="8px" fill="#000000" x="49.29152045986191" y="3" font-family="Helvetica Neue, Helvetica, Arial, sans-serif">0.8</text></g><g class="relationship" transform="translate(463.15747264960396 273.38883816599156) rotate(336.5802279750769)"><path class="b-outline" fill="#A5ABB6" stroke="none" d="M 25 0.5 L 55.22153957229742 0.5 L 55.22153957229742 -0.5 L 25 -0.5 Z M 72.34263332229742 0.5 L 102.56417289459483 0.5 L 102.56417289459483 3.5 L 109.56417289459483 0 L 102.56417289459483 -3.5 L 102.56417289459483 -0.5 L 72.34263332229742 -0.5 Z"/><text text-anchor="middle" pointer-events="none" font-size="8px" fill="#000000" x="63.78208644729742" y="3" font-family="Helvetica Neue, Helvetica, Arial, sans-serif">0.8</text></g></g><g class="layer nodes"><g class="node" aria-label="graph-node0" transform="translate(586.5270897403989,-229.6935330786901)"><circle class="b-outline" cx="0" cy="0" r="25" fill="#8DCC93" stroke="#5db665" stroke-width="2px"/><text class="caption" text-anchor="middle" pointer-events="none" x="0" y="0" font-size="10px" fill="#2A2C34" font-family="Helvetica Neue, Helvetica, Arial, sans-serif"> Identifier</text><text class="caption" text-anchor="middle" pointer-events="none" x="0" y="10" font-size="10px" fill="#2A2C34" font-family="Helvetica Neue, Helvetica, Arial, sans-serif"> Chang…</text></g><g class="node" aria-label="graph-node1" transform="translate(586.524672824328,-74.48410848272806)"><circle class="b-outline" cx="0" cy="0" r="25" fill="#8DCC93" stroke="#5db665" stroke-width="2px"/><text class="caption" text-anchor="middle" pointer-events="none" x="0" y="0" font-size="10px" fill="#2A2C34" font-family="Helvetica Neue, Helvetica, Arial, sans-serif"> Date</text><text class="caption" text-anchor="middle" pointer-events="none" x="0" y="10" font-size="10px" fill="#2A2C34" font-family="Helvetica Neue, Helvetica, Arial, sans-serif"> Chang…</text></g><g class="node" aria-label="graph-node2" transform="translate(587.1531444812906,19.830117315912943)"><circle class="b-outline" cx="0" cy="0" r="25" fill="#8DCC93" stroke="#5db665" stroke-width="2px"/><text class="caption" text-anchor="middle" pointer-events="none" x="0" y="0" font-size="10px" fill="#2A2C34" font-family="Helvetica Neue, Helvetica, Arial, sans-serif"> Building</text><text class="caption" text-anchor="middle" pointer-events="none" x="0" y="10" font-size="10px" fill="#2A2C34" font-family="Helvetica Neue, Helvetica, Arial, sans-serif"> Uncha…</text></g><g class="node" aria-label="graph-node3" transform="translate(586.6559989041175,114.52316624823271)"><circle class="b-outline" cx="0" cy="0" r="25" fill="#8DCC93" stroke="#5db665" stroke-width="2px"/><text class="caption" text-anchor="middle" pointer-events="none" x="0" y="0" font-size="10px" fill="#2A2C34" font-family="Helvetica Neue, Helvetica, Arial, sans-serif"> Function</text><text class="caption" text-anchor="middle" pointer-events="none" x="0" y="10" font-size="10px" fill="#2A2C34" font-family="Helvetica Neue, Helvetica, Arial, sans-serif"> Chang…</text></g><g class="node" aria-label="graph-node4" transform="translate(586.635915328347,219.90434676485)"><circle class="b-outline" cx="0" cy="0" r="25" fill="#8DCC93" stroke="#5db665" stroke-width="2px"/><text class="caption" text-anchor="middle" pointer-events="none" x="0" y="0" font-size="10px" fill="#2A2C34" font-family="Helvetica Neue, Helvetica, Arial, sans-serif"> Roof</text><text class="caption" text-anchor="middle" pointer-events="none" x="0" y="10" font-size="10px" fill="#2A2C34" font-family="Helvetica Neue, Helvetica, Arial, sans-serif"> Raised</text></g><g class="node" aria-label="graph-node5" transform="translate(462.710575528205,-231.2279308000447)"><circle class="b-outline" cx="0" cy="0" r="25" fill="#57C7E3" stroke="#23b3d7" stroke-width="2px"/><text class="caption" text-anchor="middle" pointer-events="none" x="0" y="0" font-size="10px" fill="#2A2C34" font-family="Helvetica Neue, Helvetica, Arial, sans-serif"> Batch</text><text class="caption" text-anchor="middle" pointer-events="none" x="0" y="10" font-size="10px" fill="#2A2C34" font-family="Helvetica Neue, Helvetica, Arial, sans-serif"> Update</text></g><g class="node" aria-label="graph-node6" transform="translate(462.8134807766594,-134.030392107845)"><circle class="b-outline" cx="0" cy="0" r="25" fill="#57C7E3" stroke="#23b3d7" stroke-width="2px"/><text class="caption" text-anchor="middle" pointer-events="none" x="0" y="0" font-size="10px" fill="#2A2C34" font-family="Helvetica Neue, Helvetica, Arial, sans-serif"> Data</text><text class="caption" text-anchor="middle" pointer-events="none" x="0" y="10" font-size="10px" fill="#2A2C34" font-family="Helvetica Neue, Helvetica, Arial, sans-serif"> Impro…</text></g><g class="node" aria-label="graph-node7" transform="translate(427.60095381872577,-32.17865999203015)"><circle class="b-outline" cx="0" cy="0" r="25" fill="#57C7E3" stroke="#23b3d7" stroke-width="2px"/><text class="caption" text-anchor="middle" pointer-events="none" x="0" y="0" font-size="10px" fill="#2A2C34" font-family="Helvetica Neue, Helvetica, Arial, sans-serif"> Historic</text><text class="caption" text-anchor="middle" pointer-events="none" x="0" y="10" font-size="10px" fill="#2A2C34" font-family="Helvetica Neue, Helvetica, Arial, sans-serif"> Preser…</text></g><g class="node" aria-label="graph-node8" transform="translate(462.5998745831346,73.30089568922087)"><circle class="b-outline" cx="0" cy="0" r="25" fill="#57C7E3" stroke="#23b3d7" stroke-width="2px"/><text class="caption" text-anchor="middle" pointer-events="none" x="0" y="0" font-size="10px" fill="#2A2C34" font-family="Helvetica Neue, Helvetica, Arial, sans-serif"> Building</text><text class="caption" text-anchor="middle" pointer-events="none" x="0" y="10" font-size="10px" fill="#2A2C34" font-family="Helvetica Neue, Helvetica, Arial, sans-serif"> Repur…</text></g><g class="node" aria-label="graph-node9" transform="translate(491.6491820774328,173.8033810897609)"><circle class="b-outline" cx="0" cy="0" r="25" fill="#57C7E3" stroke="#23b3d7" stroke-width="2px"/><text class="caption" text-anchor="middle" pointer-events="none" x="0" y="0" font-size="10px" fill="#2A2C34" font-family="Helvetica Neue, Helvetica, Arial, sans-serif"> Building</text><text class="caption" text-anchor="middle" pointer-events="none" x="0" y="10" font-size="10px" fill="#2A2C34" font-family="Helvetica Neue, Helvetica, Arial, sans-serif"> Renov…</text></g><g class="node" aria-label="graph-node10" transform="translate(463.15747264960396,273.38883816599156)"><circle class="b-outline" cx="0" cy="0" r="25" fill="#57C7E3" stroke="#23b3d7" stroke-width="2px"/><text class="caption" text-anchor="middle" pointer-events="none" x="0" y="0" font-size="10px" fill="#2A2C34" font-family="Helvetica Neue, Helvetica, Arial, sans-serif"> Floor</text><text class="caption" text-anchor="middle" pointer-events="none" x="0" y="10" font-size="10px" fill="#2A2C34" font-family="Helvetica Neue, Helvetica, Arial, sans-serif"> Addition</text></g><g class="node" aria-label="graph-node11" transform="translate(326.50927543830727,-232.60165593379935)"><circle class="b-outline" cx="0" cy="0" r="25" fill="#4C8EDA" stroke="#2870c2" stroke-width="2px"/><text class="caption" text-anchor="middle" pointer-events="none" x="0" y="0" font-size="10px" fill="#FFFFFF" font-family="Helvetica Neue, Helvetica, Arial, sans-serif"> Data</text><text class="caption" text-anchor="middle" pointer-events="none" x="0" y="10" font-size="10px" fill="#FFFFFF" font-family="Helvetica Neue, Helvetica, Arial, sans-serif"> Broker</text></g><g class="node" aria-label="graph-node12" transform="translate(326.04297735738777,-134.26640303347978)"><circle class="b-outline" cx="0" cy="0" r="25" fill="#4C8EDA" stroke="#2870c2" stroke-width="2px"/><text class="caption" text-anchor="middle" pointer-events="none" x="0" y="-5" font-size="10px" fill="#FFFFFF" font-family="Helvetica Neue, Helvetica, Arial, sans-serif"> City</text><text class="caption" text-anchor="middle" pointer-events="none" x="0" y="5" font-size="10px" fill="#FFFFFF" font-family="Helvetica Neue, Helvetica, Arial, sans-serif"> Model</text><text class="caption" text-anchor="middle" pointer-events="none" x="0" y="15" font-size="10px" fill="#FFFFFF" font-family="Helvetica Neue, Helvetica, Arial, sans-serif"> Man…</text></g><g class="node" aria-label="graph-node13" transform="translate(325.4030178119691,-33.0730755004422)"><circle class="b-outline" cx="0" cy="0" r="25" fill="#4C8EDA" stroke="#2870c2" stroke-width="2px"/><text class="caption" text-anchor="middle" pointer-events="none" x="0" y="0" font-size="10px" fill="#FFFFFF" font-family="Helvetica Neue, Helvetica, Arial, sans-serif"> Urban</text><text class="caption" text-anchor="middle" pointer-events="none" x="0" y="10" font-size="10px" fill="#FFFFFF" font-family="Helvetica Neue, Helvetica, Arial, sans-serif"> Planner</text></g><g class="node" aria-label="graph-node14" transform="translate(326.86793656374397,72.37938158481852)"><circle class="b-outline" cx="0" cy="0" r="25" fill="#4C8EDA" stroke="#2870c2" stroke-width="2px"/><text class="caption" text-anchor="middle" pointer-events="none" x="0" y="0" font-size="10px" fill="#FFFFFF" font-family="Helvetica Neue, Helvetica, Arial, sans-serif"> City</text><text class="caption" text-anchor="middle" pointer-events="none" x="0" y="10" font-size="10px" fill="#FFFFFF" font-family="Helvetica Neue, Helvetica, Arial, sans-serif"> Mayor</text></g><g class="node" aria-label="graph-node15" transform="translate(327.2957054896179,171.90008509583726)"><circle class="b-outline" cx="0" cy="0" r="25" fill="#4C8EDA" stroke="#2870c2" stroke-width="2px"/><text class="caption" text-anchor="middle" pointer-events="none" x="0" y="-5" font-size="10px" fill="#FFFFFF" font-family="Helvetica Neue, Helvetica, Arial, sans-serif"> Real</text><text class="caption" text-anchor="middle" pointer-events="none" x="0" y="5" font-size="10px" fill="#FFFFFF" font-family="Helvetica Neue, Helvetica, Arial, sans-serif"> Estate</text><text class="caption" text-anchor="middle" pointer-events="none" x="0" y="15" font-size="10px" fill="#FFFFFF" font-family="Helvetica Neue, Helvetica, Arial, sans-serif"> App…</text></g><g class="node" aria-label="graph-node16" transform="translate(326.32879127298565,270.54818520313677)"><circle class="b-outline" cx="0" cy="0" r="25" fill="#4C8EDA" stroke="#2870c2" stroke-width="2px"/><text class="caption" text-anchor="middle" pointer-events="none" x="0" y="-5" font-size="10px" fill="#FFFFFF" font-family="Helvetica Neue, Helvetica, Arial, sans-serif"> Fire</text><text class="caption" text-anchor="middle" pointer-events="none" x="0" y="5" font-size="10px" fill="#FFFFFF" font-family="Helvetica Neue, Helvetica, Arial, sans-serif"> Safety</text><text class="caption" text-anchor="middle" pointer-events="none" x="0" y="15" font-size="10px" fill="#FFFFFF" font-family="Helvetica Neue, Helvetica, Arial, sans-serif"> Offi…</text></g><g class="node" aria-label="graph-node17" transform="translate(206.57398235783188,-174.98643263956262)"><circle class="b-outline" cx="0" cy="0" r="25" fill="#FFC454" stroke="#d7a013" stroke-width="2px"/><text class="caption" text-anchor="middle" pointer-events="none" x="0" y="5" font-size="10px" fill="#2A2C34" font-family="Helvetica Neue, Helvetica, Arial, sans-serif"> Technol…</text></g><g class="node" aria-label="graph-node18" transform="translate(206.074699731823,-74.02199670512636)"><circle class="b-outline" cx="0" cy="0" r="25" fill="#FFC454" stroke="#d7a013" stroke-width="2px"/><text class="caption" text-anchor="middle" pointer-events="none" x="0" y="0" font-size="10px" fill="#2A2C34" font-family="Helvetica Neue, Helvetica, Arial, sans-serif"> Mapping</text><text class="caption" text-anchor="middle" pointer-events="none" x="0" y="10" font-size="10px" fill="#2A2C34" font-family="Helvetica Neue, Helvetica, Arial, sans-serif"> Agency</text></g><g class="node" aria-label="graph-node19" transform="translate(206.08922636974287,26.33840804544718)"><circle class="b-outline" cx="0" cy="0" r="25" fill="#FFC454" stroke="#d7a013" stroke-width="2px"/><text class="caption" text-anchor="middle" pointer-events="none" x="0" y="-5" font-size="10px" fill="#2A2C34" font-family="Helvetica Neue, Helvetica, Arial, sans-serif"> City</text><text class="caption" text-anchor="middle" pointer-events="none" x="0" y="5" font-size="10px" fill="#2A2C34" font-family="Helvetica Neue, Helvetica, Arial, sans-serif"> Planning</text><text class="caption" text-anchor="middle" pointer-events="none" x="0" y="15" font-size="10px" fill="#2A2C34" font-family="Helvetica Neue, Helvetica, Arial, sans-serif"> Dep…</text></g><g class="node" aria-label="graph-node20" transform="translate(205.99979536283246,125.77354349757825)"><circle class="b-outline" cx="0" cy="0" r="25" fill="#FFC454" stroke="#d7a013" stroke-width="2px"/><text class="caption" text-anchor="middle" pointer-events="none" x="0" y="-5" font-size="10px" fill="#2A2C34" font-family="Helvetica Neue, Helvetica, Arial, sans-serif"> Real</text><text class="caption" text-anchor="middle" pointer-events="none" x="0" y="5" font-size="10px" fill="#2A2C34" font-family="Helvetica Neue, Helvetica, Arial, sans-serif"> Estate</text><text class="caption" text-anchor="middle" pointer-events="none" x="0" y="15" font-size="10px" fill="#2A2C34" font-family="Helvetica Neue, Helvetica, Arial, sans-serif"> Co…</text></g><g class="node" aria-label="graph-node21" transform="translate(206.14955880218122,223.15216488152709)"><circle class="b-outline" cx="0" cy="0" r="25" fill="#FFC454" stroke="#d7a013" stroke-width="2px"/><text class="caption" text-anchor="middle" pointer-events="none" x="0" y="-5" font-size="10px" fill="#2A2C34" font-family="Helvetica Neue, Helvetica, Arial, sans-serif"> Fire and</text><text class="caption" text-anchor="middle" pointer-events="none" x="0" y="5" font-size="10px" fill="#2A2C34" font-family="Helvetica Neue, Helvetica, Arial, sans-serif"> Rescue</text><text class="caption" text-anchor="middle" pointer-events="none" x="0" y="15" font-size="10px" fill="#2A2C34" font-family="Helvetica Neue, Helvetica, Arial, sans-serif"> Dep</text></g></g></svg>