<svg xmlns="http://www.w3.org/2000/svg" width="367.34185791015625" height="437.9139404296875" viewBox="-208.1678924560547 -218.14801025390625 367.34185791015625 437.9139404296875"><title>Neo4j Graph Visualization</title><desc>Created using Neo4j (http://www.neo4j.com/)</desc><g class="layer relationships"><g class="relationship" transform="translate(70.983138009772 167.67952316454998) rotate(239.4845886934338)"><path class="b-outline" fill="#FFC454" stroke="none" d="M 25 1.5 L 54.508644837231444 1.5 L 54.508644837231444 -1.5 L 25 -1.5 Z M 93.69223858723144 1.5 L 123.20088342446289 1.5 L 123.20088342446289 4.5 L 132.2008834244629 0 L 123.20088342446289 -4.5 L 123.20088342446289 -1.5 L 93.69223858723144 -1.5 Z"/><text text-anchor="middle" pointer-events="none" font-size="8px" fill="#000000" x="74.10044171223144" y="3" transform="rotate(180 74.10044171223144 0)" font-family="Helvetica Neue, Helvetica, Arial, sans-serif">TANDEM</text></g><g class="relationship" transform="translate(130.17392802087764 88.07248667967791) rotate(205.11813172900258)"><path class="b-outline" fill="#FFC454" stroke="none" d="M 25 1.5 L 49.37996226690369 1.5 L 49.37996226690369 -1.5 L 25 -1.5 Z M 88.56355601690369 1.5 L 112.94351828380738 1.5 L 112.94351828380738 4.5 L 121.94351828380738 0 L 112.94351828380738 -4.5 L 112.94351828380738 -1.5 L 88.56355601690369 -1.5 Z"/><text text-anchor="middle" pointer-events="none" font-size="8px" fill="#000000" x="68.97175914190369" y="3" transform="rotate(180 68.97175914190369 0)" font-family="Helvetica Neue, Helvetica, Arial, sans-serif">TANDEM</text></g><g class="relationship" transform="translate(74.32419010926246 -106.18388886941175) rotate(485.8768697668003)"><path class="b-outline" fill="#FFC454" stroke="none" d="M 25 1.5 L 45.85913837041018 1.5 L 45.85913837041018 -1.5 L 25 -1.5 Z M 85.04273212041018 1.5 L 105.90187049082036 1.5 L 105.90187049082036 4.5 L 114.90187049082036 0 L 105.90187049082036 -4.5 L 105.90187049082036 -1.5 L 85.04273212041018 -1.5 Z"/><text text-anchor="middle" pointer-events="none" font-size="8px" fill="#000000" x="65.45093524541018" y="3" transform="rotate(180 65.45093524541018 0)" font-family="Helvetica Neue, Helvetica, Arial, sans-serif">TANDEM</text></g><g class="relationship" transform="translate(20.20670992462202 -189.14801525678553) rotate(459.9738181999801)"><path class="b-outline" fill="#FFC454" stroke="none" d="M 25 1.5 L 74.24661373525045 1.5 L 74.24661373525045 -1.5 L 25 -1.5 Z M 113.43020748525045 1.5 L 162.6768212205009 1.5 L 162.6768212205009 4.5 L 171.6768212205009 0 L 162.6768212205009 -4.5 L 162.6768212205009 -1.5 L 113.43020748525045 -1.5 Z"/><text text-anchor="middle" pointer-events="none" font-size="8px" fill="#000000" x="93.83841061025045" y="3" transform="rotate(180 93.83841061025045 0)" font-family="Helvetica Neue, Helvetica, Arial, sans-serif">TANDEM</text></g><g class="relationship" transform="translate(-24.725825812269704 -101.28188004980598) rotate(446.07729058096777)"><path class="b-outline" fill="#FFC454" stroke="none" d="M 25 1.5 L 28.855623914352094 1.5 L 28.855623914352094 -1.5 L 25 -1.5 Z M 68.0392176643521 1.5 L 71.89484157870419 1.5 L 71.89484157870419 4.5 L 80.89484157870419 0 L 71.89484157870419 -4.5 L 71.89484157870419 -1.5 L 68.0392176643521 -1.5 Z"/><text text-anchor="middle" pointer-events="none" font-size="8px" fill="#000000" x="48.447420789352094" y="3" font-family="Helvetica Neue, Helvetica, Arial, sans-serif">TANDEM</text></g><g class="relationship" transform="translate(-115.0569998561514 -153.42521245567212) rotate(420.2839880733857)"><path class="b-outline" fill="#FFC454" stroke="none" d="M 25 1.5 L 67.86493037714298 1.5 L 67.86493037714298 -1.5 L 25 -1.5 Z M 107.04852412714298 1.5 L 149.91345450428597 1.5 L 149.91345450428597 4.5 L 158.91345450428597 0 L 149.91345450428597 -4.5 L 149.91345450428597 -1.5 L 107.04852412714298 -1.5 Z"/><text text-anchor="middle" pointer-events="none" font-size="8px" fill="#000000" x="87.45672725214298" y="3" font-family="Helvetica Neue, Helvetica, Arial, sans-serif">TANDEM</text></g><g class="relationship" transform="translate(-179.16786990457788 -21.584622675958073) rotate(374.114503634414)"><path class="b-outline" fill="#FFC454" stroke="none" d="M 25 1.5 L 52.2970547304226 1.5 L 52.2970547304226 -1.5 L 25 -1.5 Z M 91.4806484804226 1.5 L 118.7777032108452 1.5 L 118.7777032108452 4.5 L 127.7777032108452 0 L 118.7777032108452 -4.5 L 118.7777032108452 -1.5 L 91.4806484804226 -1.5 Z"/><text text-anchor="middle" pointer-events="none" font-size="8px" fill="#000000" x="71.8888516054226" y="3" font-family="Helvetica Neue, Helvetica, Arial, sans-serif">TANDEM</text></g><g class="relationship" transform="translate(-112.96109398161484 144.14545960682045) rotate(307.7106935445977)"><path class="b-outline" fill="#FFC454" stroke="none" d="M 25 1.5 L 47.294718516688704 1.5 L 47.294718516688704 -1.5 L 25 -1.5 Z M 86.4783122666887 1.5 L 108.77303078337741 1.5 L 108.77303078337741 4.5 L 117.77303078337741 0 L 108.77303078337741 -4.5 L 108.77303078337741 -1.5 L 86.4783122666887 -1.5 Z"/><text text-anchor="middle" pointer-events="none" font-size="8px" fill="#000000" x="66.8865153916887" y="3" font-family="Helvetica Neue, Helvetica, Arial, sans-serif">TANDEM</text></g><g class="relationship" transform="translate(-24.862768654557758 190.76591001859845) rotate(272.80760789424295)"><path class="b-outline" fill="#FFC454" stroke="none" d="M 25 1.5 L 54.22930706642747 1.5 L 54.22930706642747 -1.5 L 25 -1.5 Z M 93.41290081642747 1.5 L 122.64220788285493 1.5 L 122.64220788285493 4.5 L 131.64220788285493 0 L 122.64220788285493 -4.5 L 122.64220788285493 -1.5 L 93.41290081642747 -1.5 Z"/><text text-anchor="middle" pointer-events="none" font-size="8px" fill="#000000" x="73.82110394142747" y="3" font-family="Helvetica Neue, Helvetica, Arial, sans-serif">TANDEM</text></g><g class="relationship" transform="translate(-112.96109398161484 144.14545960682045) rotate(367.2908870500729)"><path class="b-outline" fill="#DA7194" stroke="none" d="M 25 1.5 L 49.58508643955669 1.5 L 49.58508643955669 -1.5 L 25 -1.5 Z M 126.85852393955669 1.5 L 151.44361037911338 1.5 L 151.44361037911338 4.5 L 160.44361037911338 0 L 151.44361037911338 -4.5 L 151.44361037911338 -1.5 L 126.85852393955669 -1.5 Z"/><text text-anchor="middle" pointer-events="none" font-size="8px" fill="#000000" x="88.22180518955669" y="3" font-family="Helvetica Neue, Helvetica, Arial, sans-serif">AGGREGATED_TO</text></g><g class="relationship" transform="translate(-24.862768654557758 190.76591001859845) rotate(326.4802497603183)"><path class="b-outline" fill="#DA7194" stroke="none" d="M 25 1.5 L 49.84488764757967 1.5 L 49.84488764757967 -1.5 L 25 -1.5 Z M 127.11832514757967 1.5 L 151.96321279515934 1.5 L 151.96321279515934 4.5 L 160.96321279515934 0 L 151.96321279515934 -4.5 L 151.96321279515934 -1.5 L 127.11832514757967 -1.5 Z"/><text text-anchor="middle" pointer-events="none" font-size="8px" fill="#000000" x="88.48160639757967" y="3" font-family="Helvetica Neue, Helvetica, Arial, sans-serif">AGGREGATED_TO</text></g><g class="relationship" transform="translate(-179.16786990457788 -21.584622675958073) rotate(295.9325270190744)"><path class="b-outline" fill="#DA7194" stroke="none" d="M 25 1.5 L 30.164278466663205 1.5 L 30.164278466663205 -1.5 L 25 -1.5 Z M 107.4377159666632 1.5 L 112.60199443332641 1.5 L 112.60199443332641 4.5 L 121.60199443332641 0 L 112.60199443332641 -4.5 L 112.60199443332641 -1.5 L 107.4377159666632 -1.5 Z"/><text text-anchor="middle" pointer-events="none" font-size="8px" fill="#000000" x="68.8009972166632" y="3" font-family="Helvetica Neue, Helvetica, Arial, sans-serif">AGGREGATED_TO</text></g><g class="relationship" transform="translate(20.20670992462202 -189.14801525678553) rotate(525.2061020484316)"><path class="b-outline" fill="#DA7194" stroke="none" d="M 25 1.5 L 26.813959987994636 1.5 L 26.813959987994636 -1.5 L 25 -1.5 Z M 104.08739748799464 1.5 L 105.90135747598927 1.5 L 105.90135747598927 4.5 L 114.90135747598927 0 L 105.90135747598927 -4.5 L 105.90135747598927 -1.5 L 104.08739748799464 -1.5 Z"/><text text-anchor="middle" pointer-events="none" font-size="8px" fill="#000000" x="65.45067873799464" y="3" transform="rotate(180 65.45067873799464 0)" font-family="Helvetica Neue, Helvetica, Arial, sans-serif">AGGREGATED_TO</text></g><g class="relationship" transform="translate(-24.725825812269704 -101.28188004980598) rotate(209.99553034615366)"><path class="b-outline" fill="#DA7194" stroke="none" d="M 25 1.5 L 26.203113372986913 1.5 L 26.203113372986913 -1.5 L 25 -1.5 Z M 69.0976446229869 1.5 L 70.30075799597383 1.5 L 70.30075799597383 4.5 L 79.30075799597383 0 L 70.30075799597383 -4.5 L 70.30075799597383 -1.5 L 69.0976446229869 -1.5 Z"/><text text-anchor="middle" pointer-events="none" font-size="8px" fill="#000000" x="47.65037899798691" y="3" transform="rotate(180 47.65037899798691 0)" font-family="Helvetica Neue, Helvetica, Arial, sans-serif">AGGRE…</text></g><g class="relationship" transform="translate(74.32419010926246 -106.18388886941175) rotate(194.00663354507554)"><path class="b-outline" fill="#DA7194" stroke="none" d="M 25 1.5 L 54.45551681064531 1.5 L 54.45551681064531 -1.5 L 25 -1.5 Z M 131.7289543106453 1.5 L 161.1844711212906 1.5 L 161.1844711212906 4.5 L 170.1844711212906 0 L 161.1844711212906 -4.5 L 161.1844711212906 -1.5 L 131.7289543106453 -1.5 Z"/><text text-anchor="middle" pointer-events="none" font-size="8px" fill="#000000" x="93.0922355606453" y="3" transform="rotate(180 93.0922355606453 0)" font-family="Helvetica Neue, Helvetica, Arial, sans-serif">AGGREGATED_TO</text></g></g><g class="layer nodes"><g class="node" aria-label="graph-node9262" transform="translate(-16.455322462143062,19.329734211323636)"><circle class="b-outline" cx="0" cy="0" r="40" fill="#57C7E3" stroke="#23b3d7" stroke-width="2px"/><text class="caption" text-anchor="middle" pointer-events="none" x="0" y="5" font-size="10px" fill="#2A2C34" font-family="Helvetica Neue, Helvetica, Arial, sans-serif"> DEHH_0681b5…</text></g><g class="node" aria-label="graph-node76736" transform="translate(70.983138009772,167.67952316454998)"><circle class="b-outline" cx="0" cy="0" r="25" fill="#FFC454" stroke="#d7a013" stroke-width="2px"/><text class="caption" text-anchor="middle" pointer-events="none" x="0" y="5" font-size="10px" fill="#2A2C34" font-family="Helvetica Neue, Helvetica, Arial, sans-serif"> Updated…</text></g><g class="node" aria-label="graph-node76738" transform="translate(130.17392802087764,88.07248667967791)"><circle class="b-outline" cx="0" cy="0" r="25" fill="#FFC454" stroke="#d7a013" stroke-width="2px"/><text class="caption" text-anchor="middle" pointer-events="none" x="0" y="5" font-size="10px" fill="#2A2C34" font-family="Helvetica Neue, Helvetica, Arial, sans-serif"> Updated…</text></g><g class="node" aria-label="graph-node73849" transform="translate(74.32419010926246,-106.18388886941175)"><circle class="b-outline" cx="0" cy="0" r="25" fill="#FFC454" stroke="#d7a013" stroke-width="2px"/><text class="caption" text-anchor="middle" pointer-events="none" x="0" y="5" font-size="10px" fill="#2A2C34" font-family="Helvetica Neue, Helvetica, Arial, sans-serif"> Updated…</text></g><g class="node" aria-label="graph-node74217" transform="translate(20.20670992462202,-189.14801525678553)"><circle class="b-outline" cx="0" cy="0" r="25" fill="#FFC454" stroke="#d7a013" stroke-width="2px"/><text class="caption" text-anchor="middle" pointer-events="none" x="0" y="5" font-size="10px" fill="#2A2C34" font-family="Helvetica Neue, Helvetica, Arial, sans-serif"> Translat…</text></g><g class="node" aria-label="graph-node74218" transform="translate(-24.725825812269704,-101.28188004980598)"><circle class="b-outline" cx="0" cy="0" r="25" fill="#FFC454" stroke="#d7a013" stroke-width="2px"/><text class="caption" text-anchor="middle" pointer-events="none" x="0" y="5" font-size="10px" fill="#2A2C34" font-family="Helvetica Neue, Helvetica, Arial, sans-serif"> SizeCha…</text></g><g class="node" aria-label="graph-node75119" transform="translate(-115.0569998561514,-153.42521245567212)"><circle class="b-outline" cx="0" cy="0" r="25" fill="#FFC454" stroke="#d7a013" stroke-width="2px"/><text class="caption" text-anchor="middle" pointer-events="none" x="0" y="5" font-size="10px" fill="#2A2C34" font-family="Helvetica Neue, Helvetica, Arial, sans-serif"> RaisedB…</text></g><g class="node" aria-label="graph-node74228" transform="translate(-179.16786990457788,-21.584622675958073)"><circle class="b-outline" cx="0" cy="0" r="25" fill="#FFC454" stroke="#d7a013" stroke-width="2px"/><text class="caption" text-anchor="middle" pointer-events="none" x="0" y="5" font-size="10px" fill="#2A2C34" font-family="Helvetica Neue, Helvetica, Arial, sans-serif"> Translat…</text></g><g class="node" aria-label="graph-node70916" transform="translate(-112.96109398161484,144.14545960682045)"><circle class="b-outline" cx="0" cy="0" r="25" fill="#FFC454" stroke="#d7a013" stroke-width="2px"/><text class="caption" text-anchor="middle" pointer-events="none" x="0" y="5" font-size="10px" fill="#2A2C34" font-family="Helvetica Neue, Helvetica, Arial, sans-serif"> UpdateP…</text></g><g class="node" aria-label="graph-node70914" transform="translate(-24.862768654557758,190.76591001859845)"><circle class="b-outline" cx="0" cy="0" r="25" fill="#FFC454" stroke="#d7a013" stroke-width="2px"/><text class="caption" text-anchor="middle" pointer-events="none" x="0" y="5" font-size="10px" fill="#2A2C34" font-family="Helvetica Neue, Helvetica, Arial, sans-serif"> UpdateP…</text></g></g></svg>