<svg xmlns="http://www.w3.org/2000/svg" width="667.9332275390625" height="695.3778076171875" viewBox="-331.45550537109375 -374.818115234375 667.9332275390625 695.3778076171875"><title>Neo4j Graph Visualization</title><desc>Created using Neo4j (http://www.neo4j.com/)</desc><g class="layer relationships"><g class="relationship" transform="translate(123.59436591233013 275.2609538144089) rotate(231.818284002366)"><path class="b-outline" fill="#FFC454" stroke="none" d="M 25 1.5 L 47.23794791062542 1.5 L 47.23794791062542 -1.5 L 25 -1.5 Z M 86.42154166062542 1.5 L 108.65948957125084 1.5 L 108.65948957125084 4.5 L 117.65948957125084 0 L 108.65948957125084 -4.5 L 108.65948957125084 -1.5 L 86.42154166062542 -1.5 Z"/><text text-anchor="middle" pointer-events="none" font-size="8px" fill="#000000" x="66.82974478562542" y="3" transform="rotate(180 66.82974478562542 0)" font-family="Helvetica Neue, Helvetica, Arial, sans-serif">TANDEM</text></g><g class="relationship" transform="translate(307.4777469874416 -8.359002662309921) rotate(495.67956596808176)"><path class="b-outline" fill="#FFC454" stroke="none" d="M 25 1.5 L 45.92694805374818 1.5 L 45.92694805374818 -1.5 L 25 -1.5 Z M 85.11054180374818 1.5 L 106.03748985749635 1.5 L 106.03748985749635 4.5 L 115.03748985749635 0 L 106.03748985749635 -4.5 L 106.03748985749635 -1.5 L 85.11054180374818 -1.5 Z"/><text text-anchor="middle" pointer-events="none" font-size="8px" fill="#000000" x="65.51874492874818" y="3" transform="rotate(180 65.51874492874818 0)" font-family="Helvetica Neue, Helvetica, Arial, sans-serif">TANDEM</text></g><g class="relationship" transform="translate(91.49258476617405 -192.1255374144393) rotate(359.09764385934454)"><path class="b-outline" fill="#FFC454" stroke="none" d="M 25 1.5 L 46.351809386602994 1.5 L 46.351809386602994 -1.5 L 25 -1.5 Z M 85.535403136603 1.5 L 106.88721252320599 1.5 L 106.88721252320599 4.5 L 115.88721252320599 0 L 106.88721252320599 -4.5 L 106.88721252320599 -1.5 L 85.535403136603 -1.5 Z"/><text text-anchor="middle" pointer-events="none" font-size="8px" fill="#000000" x="65.943606261603" y="3" font-family="Helvetica Neue, Helvetica, Arial, sans-serif">TANDEM</text></g><g class="relationship" transform="translate(-139.4355021428227 -195.34513064771616) rotate(299.602451513232)"><path class="b-outline" fill="#FFC454" stroke="none" d="M 25 1.5 L 46.3133585332246 1.5 L 46.3133585332246 -1.5 L 25 -1.5 Z M 85.4969522832246 1.5 L 106.8103108164492 1.5 L 106.8103108164492 4.5 L 115.8103108164492 0 L 106.8103108164492 -4.5 L 106.8103108164492 -1.5 L 85.4969522832246 -1.5 Z"/><text text-anchor="middle" pointer-events="none" font-size="8px" fill="#000000" x="65.9051554082246" y="3" font-family="Helvetica Neue, Helvetica, Arial, sans-serif">TANDEM</text></g><g class="relationship" transform="translate(-133.6640755548825 -14.919033306679943) rotate(192.47200544922907)"><path class="b-outline" fill="#FFC454" stroke="none" d="M 25 1.5 L 47.16236674170533 1.5 L 47.16236674170533 -1.5 L 25 -1.5 Z M 86.34596049170533 1.5 L 108.50832723341065 1.5 L 108.50832723341065 4.5 L 117.50832723341065 0 L 108.50832723341065 -4.5 L 108.50832723341065 -1.5 L 86.34596049170533 -1.5 Z"/><text text-anchor="middle" pointer-events="none" font-size="8px" fill="#000000" x="66.75416361670533" y="3" transform="rotate(180 66.75416361670533 0)" font-family="Helvetica Neue, Helvetica, Arial, sans-serif">TANDEM</text></g><g class="relationship" transform="translate(-119.85422222142408 291.5596632826276) rotate(226.78422815699673)"><path class="b-outline" fill="#FFC454" stroke="none" d="M 25 1.5 L 46.76105223000211 1.5 L 46.76105223000211 -1.5 L 25 -1.5 Z M 85.94464598000211 1.5 L 107.70569821000421 1.5 L 107.70569821000421 4.5 L 116.70569821000421 0 L 107.70569821000421 -4.5 L 107.70569821000421 -1.5 L 85.94464598000211 -1.5 Z"/><text text-anchor="middle" pointer-events="none" font-size="8px" fill="#000000" x="66.35284910500211" y="3" transform="rotate(180 66.35284910500211 0)" font-family="Helvetica Neue, Helvetica, Arial, sans-serif">TANDEM</text></g></g><g class="layer nodes"><g class="node" aria-label="graph-node19061" transform="translate(26.135956691812233,151.3320503089174)"><circle class="b-outline" cx="0" cy="0" r="40" fill="#57C7E3" stroke="#23b3d7" stroke-width="2px"/><text class="caption" text-anchor="middle" pointer-events="none" x="0" y="5" font-size="10px" fill="#2A2C34" font-family="Helvetica Neue, Helvetica, Arial, sans-serif"> DEHH_92d18f…</text></g><g class="node" aria-label="graph-node75115" transform="translate(123.59436591233013,275.2609538144089)"><circle class="b-outline" cx="0" cy="0" r="25" fill="#FFC454" stroke="#d7a013" stroke-width="2px"/><text class="caption" text-anchor="middle" pointer-events="none" x="0" y="5" font-size="10px" fill="#2A2C34" font-family="Helvetica Neue, Helvetica, Arial, sans-serif"> RaisedB…</text></g><g class="node" aria-label="graph-node16602" transform="translate(196.55716639993707,99.96111579887067)"><circle class="b-outline" cx="0" cy="0" r="40" fill="#57C7E3" stroke="#23b3d7" stroke-width="2px"/><text class="caption" text-anchor="middle" pointer-events="none" x="0" y="5" font-size="10px" fill="#2A2C34" font-family="Helvetica Neue, Helvetica, Arial, sans-serif"> DEHH_fc2c5fc…</text></g><g class="node" aria-label="graph-node75116" transform="translate(307.4777469874416,-8.359002662309921)"><circle class="b-outline" cx="0" cy="0" r="25" fill="#FFC454" stroke="#d7a013" stroke-width="2px"/><text class="caption" text-anchor="middle" pointer-events="none" x="0" y="5" font-size="10px" fill="#2A2C34" font-family="Helvetica Neue, Helvetica, Arial, sans-serif"> RaisedB…</text></g><g class="node" aria-label="graph-node7570" transform="translate(247.36046504793882,-194.58051699167333)"><circle class="b-outline" cx="0" cy="0" r="40" fill="#57C7E3" stroke="#23b3d7" stroke-width="2px"/><text class="caption" text-anchor="middle" pointer-events="none" x="0" y="5" font-size="10px" fill="#2A2C34" font-family="Helvetica Neue, Helvetica, Arial, sans-serif"> DEHH_cde470…</text></g><g class="node" aria-label="graph-node75118" transform="translate(91.49258476617405,-192.1255374144393)"><circle class="b-outline" cx="0" cy="0" r="25" fill="#FFC454" stroke="#d7a013" stroke-width="2px"/><text class="caption" text-anchor="middle" pointer-events="none" x="0" y="5" font-size="10px" fill="#2A2C34" font-family="Helvetica Neue, Helvetica, Arial, sans-serif"> RaisedB…</text></g><g class="node" aria-label="graph-node9262" transform="translate(-62.468469835178894,-330.8181128045751)"><circle class="b-outline" cx="0" cy="0" r="40" fill="#57C7E3" stroke="#23b3d7" stroke-width="2px"/><text class="caption" text-anchor="middle" pointer-events="none" x="0" y="5" font-size="10px" fill="#2A2C34" font-family="Helvetica Neue, Helvetica, Arial, sans-serif"> DEHH_0681b5…</text></g><g class="node" aria-label="graph-node75119" transform="translate(-139.4355021428227,-195.34513064771616)"><circle class="b-outline" cx="0" cy="0" r="25" fill="#FFC454" stroke="#d7a013" stroke-width="2px"/><text class="caption" text-anchor="middle" pointer-events="none" x="0" y="5" font-size="10px" fill="#2A2C34" font-family="Helvetica Neue, Helvetica, Arial, sans-serif"> RaisedB…</text></g><g class="node" aria-label="graph-node10319" transform="translate(-287.4554649487094,-48.9349368840286)"><circle class="b-outline" cx="0" cy="0" r="40" fill="#57C7E3" stroke="#23b3d7" stroke-width="2px"/><text class="caption" text-anchor="middle" pointer-events="none" x="0" y="5" font-size="10px" fill="#2A2C34" font-family="Helvetica Neue, Helvetica, Arial, sans-serif"> DEHH_16858c…</text></g><g class="node" aria-label="graph-node75121" transform="translate(-133.6640755548825,-14.919033306679943)"><circle class="b-outline" cx="0" cy="0" r="25" fill="#FFC454" stroke="#d7a013" stroke-width="2px"/><text class="caption" text-anchor="middle" pointer-events="none" x="0" y="5" font-size="10px" fill="#2A2C34" font-family="Helvetica Neue, Helvetica, Arial, sans-serif"> RaisedB…</text></g><g class="node" aria-label="graph-node21832" transform="translate(-227.15809548226886,177.35565882260227)"><circle class="b-outline" cx="0" cy="0" r="40" fill="#57C7E3" stroke="#23b3d7" stroke-width="2px"/><text class="caption" text-anchor="middle" pointer-events="none" x="0" y="5" font-size="10px" fill="#2A2C34" font-family="Helvetica Neue, Helvetica, Arial, sans-serif"> DEHH_867250…</text></g><g class="node" aria-label="graph-node75423" transform="translate(-119.85422222142408,291.5596632826276)"><circle class="b-outline" cx="0" cy="0" r="25" fill="#FFC454" stroke="#d7a013" stroke-width="2px"/><text class="caption" text-anchor="middle" pointer-events="none" x="0" y="5" font-size="10px" fill="#2A2C34" font-family="Helvetica Neue, Helvetica, Arial, sans-serif"> RaisedB…</text></g></g></svg>