<svg xmlns="http://www.w3.org/2000/svg" width="235.71307373046875" height="333.0300598144531" viewBox="-73.08792877197266 -139.2236328125 235.71307373046875 333.0300598144531"><title>Neo4j Graph Visualization</title><desc>Created using Neo4j (http://www.neo4j.com/)</desc><g class="layer relationships"><g class="relationship" transform="translate(54.229034510786235 164.80641964367322) rotate(288.5096764508613)"><path class="b-outline" fill="#DA7194" stroke="none" d="M 25 1.5 L 28.49810765898755 1.5 L 28.49810765898755 -1.5 L 25 -1.5 Z M 105.77154515898755 1.5 L 109.2696528179751 1.5 L 109.2696528179751 4.5 L 118.2696528179751 0 L 109.2696528179751 -4.5 L 109.2696528179751 -1.5 L 105.77154515898755 -1.5 Z"/><text text-anchor="middle" pointer-events="none" font-size="8px" fill="#000000" x="67.13482640898755" y="3" font-family="Helvetica Neue, Helvetica, Arial, sans-serif">AGGREGATED_TO</text></g><g class="relationship" transform="translate(133.62515725178167 -110.22362855803671) rotate(463.69480804421255)"><path class="b-outline" fill="#DA7194" stroke="none" d="M 25 1.5 L 28.48531782506167 1.5 L 28.48531782506167 -1.5 L 25 -1.5 Z M 105.75875532506167 1.5 L 109.24407315012334 1.5 L 109.24407315012334 4.5 L 118.24407315012334 0 L 109.24407315012334 -4.5 L 109.24407315012334 -1.5 L 105.75875532506167 -1.5 Z"/><text text-anchor="middle" pointer-events="none" font-size="8px" fill="#000000" x="67.12203657506167" y="3" transform="rotate(180 67.12203657506167 0)" font-family="Helvetica Neue, Helvetica, Arial, sans-serif">AGGREGATED_TO</text></g><g class="relationship" transform="translate(-8.241575905440914 -69.32907627320078) rotate(402.31360863053897)"><path class="b-outline" fill="#DA7194" stroke="none" d="M 25 1.5 L 29.857118052722342 1.5 L 29.857118052722342 -1.5 L 25 -1.5 Z M 107.13055555272234 1.5 L 111.98767360544468 1.5 L 111.98767360544468 4.5 L 120.98767360544468 0 L 111.98767360544468 -4.5 L 111.98767360544468 -1.5 L 107.13055555272234 -1.5 Z"/><text text-anchor="middle" pointer-events="none" font-size="8px" fill="#000000" x="68.49383680272234" y="3" font-family="Helvetica Neue, Helvetica, Arial, sans-serif">AGGREGATED_TO</text></g><g class="relationship" transform="translate(-44.08792652780596 54.36089918010948) rotate(349.97798485781743)"><path class="b-outline" fill="#DA7194" stroke="none" d="M 25 1.5 L 29.877424204447323 1.5 L 29.877424204447323 -1.5 L 25 -1.5 Z M 107.15086170444732 1.5 L 112.02828590889465 1.5 L 112.02828590889465 4.5 L 121.02828590889465 0 L 112.02828590889465 -4.5 L 112.02828590889465 -1.5 L 107.15086170444732 -1.5 Z"/><text text-anchor="middle" pointer-events="none" font-size="8px" fill="#000000" x="68.51414295444732" y="3" font-family="Helvetica Neue, Helvetica, Arial, sans-serif">AGGREGATED_TO</text></g></g><g class="layer nodes"><g class="node" aria-label="graph-node73534" transform="translate(54.229034510786235,164.80641964367322)"><circle class="b-outline" cx="0" cy="0" r="25" fill="#8DCC93" stroke="#5db665" stroke-width="2px"/><text class="caption" text-anchor="middle" pointer-events="none" x="0" y="5" font-size="10px" fill="#2A2C34" font-family="Helvetica Neue, Helvetica, Arial, sans-serif"> 73534</text></g><g class="node" aria-label="graph-node73587" transform="translate(99.71210767860345,28.94809831665951)"><circle class="b-outline" cx="0" cy="0" r="25" fill="#8DCC93" stroke="#5db665" stroke-width="2px"/><text class="caption" text-anchor="middle" pointer-events="none" x="0" y="5" font-size="10px" fill="#2A2C34" font-family="Helvetica Neue, Helvetica, Arial, sans-serif"> 73587</text></g><g class="node" aria-label="graph-node73554" transform="translate(133.62515725178167,-110.22362855803671)"><circle class="b-outline" cx="0" cy="0" r="25" fill="#8DCC93" stroke="#5db665" stroke-width="2px"/><text class="caption" text-anchor="middle" pointer-events="none" x="0" y="5" font-size="10px" fill="#2A2C34" font-family="Helvetica Neue, Helvetica, Arial, sans-serif"> 73554</text></g><g class="node" aria-label="graph-node73552" transform="translate(-8.241575905440914,-69.32907627320078)"><circle class="b-outline" cx="0" cy="0" r="25" fill="#8DCC93" stroke="#5db665" stroke-width="2px"/><text class="caption" text-anchor="middle" pointer-events="none" x="0" y="5" font-size="10px" fill="#2A2C34" font-family="Helvetica Neue, Helvetica, Arial, sans-serif"> 73552</text></g><g class="node" aria-label="graph-node73581" transform="translate(-44.08792652780596,54.36089918010948)"><circle class="b-outline" cx="0" cy="0" r="25" fill="#8DCC93" stroke="#5db665" stroke-width="2px"/><text class="caption" text-anchor="middle" pointer-events="none" x="0" y="5" font-size="10px" fill="#2A2C34" font-family="Helvetica Neue, Helvetica, Arial, sans-serif"> 73581</text></g></g></svg>