<svg xmlns="http://www.w3.org/2000/svg" width="1633.71826171875" height="1643.9066162109375" viewBox="-868.59326171875 -781.8258056640625 1633.71826171875 1643.9066162109375"><title>Neo4j Graph Visualization</title><desc>Created using Neo4j (http://www.neo4j.com/)</desc><g class="layer relationships"><g class="relationship" transform="translate(-2.878627215166764 599.4703106618103) rotate(507.67315712543166)"><path class="b-outline" fill="#DA7194" stroke="none" d="M 25 1.5 L 41.60186090682568 1.5 L 41.60186090682568 -1.5 L 25 -1.5 Z M 118.87529840682568 1.5 L 135.47715931365136 1.5 L 135.47715931365136 4.5 L 144.47715931365136 0 L 135.47715931365136 -4.5 L 135.47715931365136 -1.5 L 118.87529840682568 -1.5 Z"/><text text-anchor="middle" pointer-events="none" font-size="8px" fill="#000000" x="80.23857965682568" y="3" transform="rotate(180 80.23857965682568 0)" font-family="Helvetica Neue, Helvetica, Arial, sans-serif">AGGREGATED_TO</text></g><g class="relationship" transform="translate(-146.0887585765927 690.0979323037132) rotate(369.8762060188775)"><path class="b-outline" fill="#DA7194" stroke="none" d="M 25 1.5 L 33.26762886770918 1.5 L 33.26762886770918 -1.5 L 25 -1.5 Z M 110.54106636770918 1.5 L 118.80869523541836 1.5 L 118.80869523541836 4.5 L 127.80869523541836 0 L 118.80869523541836 -4.5 L 118.80869523541836 -1.5 L 110.54106636770918 -1.5 Z"/><text text-anchor="middle" pointer-events="none" font-size="8px" fill="#000000" x="71.90434761770918" y="3" font-family="Helvetica Neue, Helvetica, Arial, sans-serif">AGGREGATED_TO</text></g><g class="relationship" transform="translate(-146.0887585765927 690.0979323037132) rotate(440.97280600671127)"><path class="b-outline" fill="#DA7194" stroke="none" d="M 25 1.5 L 29.251314718902947 1.5 L 29.251314718902947 -1.5 L 25 -1.5 Z M 106.52475221890295 1.5 L 110.7760669378059 1.5 L 110.7760669378059 4.5 L 119.7760669378059 0 L 110.7760669378059 -4.5 L 110.7760669378059 -1.5 L 106.52475221890295 -1.5 Z"/><text text-anchor="middle" pointer-events="none" font-size="8px" fill="#000000" x="67.88803346890295" y="3" font-family="Helvetica Neue, Helvetica, Arial, sans-serif">AGGREGATED_TO</text></g><g class="relationship" transform="translate(-2.878627215166764 599.4703106618103) rotate(407.7881253636072)"><path class="b-outline" fill="#DA7194" stroke="none" d="M 25 1.5 L 52.93979881558532 1.5 L 52.93979881558532 -1.5 L 25 -1.5 Z M 130.21323631558533 1.5 L 158.15303513117064 1.5 L 158.15303513117064 4.5 L 167.15303513117064 0 L 158.15303513117064 -4.5 L 158.15303513117064 -1.5 L 130.21323631558533 -1.5 Z"/><text text-anchor="middle" pointer-events="none" font-size="8px" fill="#000000" x="91.57651756558532" y="3" font-family="Helvetica Neue, Helvetica, Arial, sans-serif">AGGREGATED_TO</text></g><g class="relationship" transform="translate(126.22402181721124 741.7914086162019) rotate(365.2795431308694)"><path class="b-outline" fill="#DA7194" stroke="none" d="M 25 1.5 L 33.693979096677594 1.5 L 33.693979096677594 -1.5 L 25 -1.5 Z M 110.9674165966776 1.5 L 119.66139569335519 1.5 L 119.66139569335519 4.5 L 128.6613956933552 0 L 119.66139569335519 -4.5 L 119.66139569335519 -1.5 L 110.9674165966776 -1.5 Z"/><text text-anchor="middle" pointer-events="none" font-size="8px" fill="#000000" x="72.3306978466776" y="3" font-family="Helvetica Neue, Helvetica, Arial, sans-serif">AGGREGATED_TO</text></g><g class="relationship" transform="translate(126.22402181721124 741.7914086162019) rotate(327.49859176857194)"><path class="b-outline" fill="#DA7194" stroke="none" d="M 25 1.5 L 33.86667560632873 1.5 L 33.86667560632873 -1.5 L 25 -1.5 Z M 111.14011310632873 1.5 L 120.00678871265745 1.5 L 120.00678871265745 4.5 L 129.00678871265745 0 L 120.00678871265745 -4.5 L 120.00678871265745 -1.5 L 111.14011310632873 -1.5 Z"/><text text-anchor="middle" pointer-events="none" font-size="8px" fill="#000000" x="72.50339435632873" y="3" font-family="Helvetica Neue, Helvetica, Arial, sans-serif">AGGREGATED_TO</text></g><g class="relationship" transform="translate(4.455409668329334 716.3076775713722) rotate(335.6671115419416)"><path class="b-outline" fill="#DA7194" stroke="none" d="M 25 1.5 L 40.621384201430686 1.5 L 40.621384201430686 -1.5 L 25 -1.5 Z M 117.89482170143069 1.5 L 133.51620590286137 1.5 L 133.51620590286137 4.5 L 142.51620590286137 0 L 133.51620590286137 -4.5 L 133.51620590286137 -1.5 L 117.89482170143069 -1.5 Z"/><text text-anchor="middle" pointer-events="none" font-size="8px" fill="#000000" x="79.25810295143069" y="3" font-family="Helvetica Neue, Helvetica, Arial, sans-serif">AGGREGATED_TO</text></g><g class="relationship" transform="translate(279.23352666222064 755.9305724357112) rotate(221.65302528998035)"><path class="b-outline" fill="#DA7194" stroke="none" d="M 25 1.5 L 38.59883938102638 1.5 L 38.59883938102638 -1.5 L 25 -1.5 Z M 115.87227688102638 1.5 L 129.47111626205276 1.5 L 129.47111626205276 4.5 L 138.47111626205276 0 L 129.47111626205276 -4.5 L 129.47111626205276 -1.5 L 115.87227688102638 -1.5 Z"/><text text-anchor="middle" pointer-events="none" font-size="8px" fill="#000000" x="77.23555813102638" y="3" transform="rotate(180 77.23555813102638 0)" font-family="Helvetica Neue, Helvetica, Arial, sans-serif">AGGREGATED_TO</text></g><g class="relationship" transform="translate(-2.878627215166764 599.4703106618103) rotate(302.07542767481107)"><path class="b-outline" fill="#DA7194" stroke="none" d="M 25 1.5 L 45.411764028857434 1.5 L 45.411764028857434 -1.5 L 25 -1.5 Z M 122.68520152885743 1.5 L 143.09696555771487 1.5 L 143.09696555771487 4.5 L 152.09696555771487 0 L 143.09696555771487 -4.5 L 143.09696555771487 -1.5 L 122.68520152885743 -1.5 Z"/><text text-anchor="middle" pointer-events="none" font-size="8px" fill="#000000" x="84.04848277885743" y="3" font-family="Helvetica Neue, Helvetica, Arial, sans-serif">AGGREGATED_TO</text></g><g class="relationship" transform="translate(91.16610012496629 449.4072423562793) rotate(307.87872869474495)"><path class="b-outline" fill="#DA7194" stroke="none" d="M 25 1.5 L 48.337761592216026 1.5 L 48.337761592216026 -1.5 L 25 -1.5 Z M 125.61119909221603 1.5 L 148.94896068443205 1.5 L 148.94896068443205 4.5 L 157.94896068443205 0 L 148.94896068443205 -4.5 L 148.94896068443205 -1.5 L 125.61119909221603 -1.5 Z"/><text text-anchor="middle" pointer-events="none" font-size="8px" fill="#000000" x="86.97448034221603" y="3" font-family="Helvetica Neue, Helvetica, Arial, sans-serif">AGGREGATED_TO</text></g><g class="relationship" transform="translate(203.49533624612803 305.00341647915735) rotate(368.03154940781394)"><path class="b-outline" fill="#DA7194" stroke="none" d="M 25 1.5 L 31.951737843041073 1.5 L 31.951737843041073 -1.5 L 25 -1.5 Z M 109.22517534304107 1.5 L 116.17691318608215 1.5 L 116.17691318608215 4.5 L 125.17691318608215 0 L 116.17691318608215 -4.5 L 116.17691318608215 -1.5 L 109.22517534304107 -1.5 Z"/><text text-anchor="middle" pointer-events="none" font-size="8px" fill="#000000" x="70.58845659304107" y="3" font-family="Helvetica Neue, Helvetica, Arial, sans-serif">AGGREGATED_TO</text></g><g class="relationship" transform="translate(203.49533624612803 305.00341647915735) rotate(406.8329884189203)"><path class="b-outline" fill="#DA7194" stroke="none" d="M 25 1.5 L 32.12918691803098 1.5 L 32.12918691803098 -1.5 L 25 -1.5 Z M 109.40262441803098 1.5 L 116.53181133606196 1.5 L 116.53181133606196 4.5 L 125.53181133606196 0 L 116.53181133606196 -4.5 L 116.53181133606196 -1.5 L 109.40262441803098 -1.5 Z"/><text text-anchor="middle" pointer-events="none" font-size="8px" fill="#000000" x="70.76590566803098" y="3" font-family="Helvetica Neue, Helvetica, Arial, sans-serif">AGGREGATED_TO</text></g><g class="relationship" transform="translate(687.6821134394683 224.44507762193481) rotate(230.70944554208978)"><path class="b-outline" fill="#DA7194" stroke="none" d="M 25 1.5 L 31.404296208954506 1.5 L 31.404296208954506 -1.5 L 25 -1.5 Z M 108.6777337089545 1.5 L 115.08202991790901 1.5 L 115.08202991790901 4.5 L 124.08202991790901 0 L 115.08202991790901 -4.5 L 115.08202991790901 -1.5 L 108.6777337089545 -1.5 Z"/><text text-anchor="middle" pointer-events="none" font-size="8px" fill="#000000" x="70.0410149589545" y="3" transform="rotate(180 70.0410149589545 0)" font-family="Helvetica Neue, Helvetica, Arial, sans-serif">AGGREGATED_TO</text></g><g class="relationship" transform="translate(593.2754272207695 109.06384326535293) rotate(215.86925102813802)"><path class="b-outline" fill="#DA7194" stroke="none" d="M 25 1.5 L 53.780037008335555 1.5 L 53.780037008335555 -1.5 L 25 -1.5 Z M 131.05347450833557 1.5 L 159.8335115166711 1.5 L 159.8335115166711 4.5 L 168.8335115166711 0 L 159.8335115166711 -4.5 L 159.8335115166711 -1.5 L 131.05347450833557 -1.5 Z"/><text text-anchor="middle" pointer-events="none" font-size="8px" fill="#000000" x="92.41675575833555" y="3" transform="rotate(180 92.41675575833555 0)" font-family="Helvetica Neue, Helvetica, Arial, sans-serif">AGGREGATED_TO</text></g><g class="relationship" transform="translate(593.2754272207695 109.06384326535293) rotate(281.25841300894984)"><path class="b-outline" fill="#DA7194" stroke="none" d="M 25 1.5 L 44.68862124205236 1.5 L 44.68862124205236 -1.5 L 25 -1.5 Z M 121.96205874205236 1.5 L 141.65067998410473 1.5 L 141.65067998410473 4.5 L 150.65067998410473 0 L 141.65067998410473 -4.5 L 141.65067998410473 -1.5 L 121.96205874205236 -1.5 Z"/><text text-anchor="middle" pointer-events="none" font-size="8px" fill="#000000" x="83.32533999205236" y="3" font-family="Helvetica Neue, Helvetica, Arial, sans-serif">AGGREGATED_TO</text></g><g class="relationship" transform="translate(593.2754272207695 109.06384326535293) rotate(245.67197233323327)"><path class="b-outline" fill="#DA7194" stroke="none" d="M 25 1.5 L 28.235101704085878 1.5 L 28.235101704085878 -1.5 L 25 -1.5 Z M 105.50853920408588 1.5 L 108.74364090817176 1.5 L 108.74364090817176 4.5 L 117.74364090817176 0 L 108.74364090817176 -4.5 L 108.74364090817176 -1.5 L 105.50853920408588 -1.5 Z"/><text text-anchor="middle" pointer-events="none" font-size="8px" fill="#000000" x="66.87182045408588" y="3" transform="rotate(180 66.87182045408588 0)" font-family="Helvetica Neue, Helvetica, Arial, sans-serif">AGGREGATED_TO</text></g><g class="relationship" transform="translate(436.2012369336743 -4.51048892522996) rotate(303.40239805832584)"><path class="b-outline" fill="#DA7194" stroke="none" d="M 25 1.5 L 56.22523984615658 1.5 L 56.22523984615658 -1.5 L 25 -1.5 Z M 133.49867734615657 1.5 L 164.72391719231317 1.5 L 164.72391719231317 4.5 L 173.72391719231317 0 L 164.72391719231317 -4.5 L 164.72391719231317 -1.5 L 133.49867734615657 -1.5 Z"/><text text-anchor="middle" pointer-events="none" font-size="8px" fill="#000000" x="94.86195859615658" y="3" font-family="Helvetica Neue, Helvetica, Arial, sans-serif">AGGREGATED_TO</text></g><g class="relationship" transform="translate(627.5684706090315 -63.20672460405752) rotate(308.08781919141006)"><path class="b-outline" fill="#DA7194" stroke="none" d="M 25 1.5 L 44.853402073505436 1.5 L 44.853402073505436 -1.5 L 25 -1.5 Z M 122.12683957350544 1.5 L 141.98024164701087 1.5 L 141.98024164701087 4.5 L 150.98024164701087 0 L 141.98024164701087 -4.5 L 141.98024164701087 -1.5 L 122.12683957350544 -1.5 Z"/><text text-anchor="middle" pointer-events="none" font-size="8px" fill="#000000" x="83.49012082350544" y="3" font-family="Helvetica Neue, Helvetica, Arial, sans-serif">AGGREGATED_TO</text></g><g class="relationship" transform="translate(534.4707361987239 -21.00442855188477) rotate(308.15284710144164)"><path class="b-outline" fill="#DA7194" stroke="none" d="M 25 1.5 L 46.14932681486937 1.5 L 46.14932681486937 -1.5 L 25 -1.5 Z M 123.42276431486937 1.5 L 144.57209112973874 1.5 L 144.57209112973874 4.5 L 153.57209112973874 0 L 144.57209112973874 -4.5 L 144.57209112973874 -1.5 L 123.42276431486937 -1.5 Z"/><text text-anchor="middle" pointer-events="none" font-size="8px" fill="#000000" x="84.78604556486937" y="3" font-family="Helvetica Neue, Helvetica, Arial, sans-serif">AGGREGATED_TO</text></g><g class="relationship" transform="translate(736.1251493158588 -201.71482168968998) rotate(229.77336393326158)"><path class="b-outline" fill="#DA7194" stroke="none" d="M 25 1.5 L 38.58010428211054 1.5 L 38.58010428211054 -1.5 L 25 -1.5 Z M 115.85354178211054 1.5 L 129.43364606422108 1.5 L 129.43364606422108 4.5 L 138.43364606422108 0 L 129.43364606422108 -4.5 L 129.43364606422108 -1.5 L 115.85354178211054 -1.5 Z"/><text text-anchor="middle" pointer-events="none" font-size="8px" fill="#000000" x="77.21682303211054" y="3" transform="rotate(180 77.21682303211054 0)" font-family="Helvetica Neue, Helvetica, Arial, sans-serif">AGGREGATED_TO</text></g><g class="relationship" transform="translate(545.6018696046629 -170.41014786232597) rotate(298.5646543409205)"><path class="b-outline" fill="#DA7194" stroke="none" d="M 25 1.5 L 45.72214453601464 1.5 L 45.72214453601464 -1.5 L 25 -1.5 Z M 122.99558203601464 1.5 L 143.71772657202928 1.5 L 143.71772657202928 4.5 L 152.71772657202928 0 L 143.71772657202928 -4.5 L 143.71772657202928 -1.5 L 122.99558203601464 -1.5 Z"/><text text-anchor="middle" pointer-events="none" font-size="8px" fill="#000000" x="84.35886328601464" y="3" font-family="Helvetica Neue, Helvetica, Arial, sans-serif">AGGREGATED_TO</text></g><g class="relationship" transform="translate(644.7856895634104 -161.4273711025761) rotate(265.08045891720406)"><path class="b-outline" fill="#DA7194" stroke="none" d="M 25 1.5 L 39.70263573024137 1.5 L 39.70263573024137 -1.5 L 25 -1.5 Z M 116.97607323024137 1.5 L 131.67870896048274 1.5 L 131.67870896048274 4.5 L 140.67870896048274 0 L 131.67870896048274 -4.5 L 131.67870896048274 -1.5 L 116.97607323024137 -1.5 Z"/><text text-anchor="middle" pointer-events="none" font-size="8px" fill="#000000" x="78.33935448024137" y="3" transform="rotate(180 78.33935448024137 0)" font-family="Helvetica Neue, Helvetica, Arial, sans-serif">AGGREGATED_TO</text></g><g class="relationship" transform="translate(630.5776255940276 -326.49573730595944) rotate(235.02148560559283)"><path class="b-outline" fill="#DA7194" stroke="none" d="M 25 1.5 L 57.947979740412265 1.5 L 57.947979740412265 -1.5 L 25 -1.5 Z M 135.22141724041228 1.5 L 168.16939698082453 1.5 L 168.16939698082453 4.5 L 177.16939698082453 0 L 168.16939698082453 -4.5 L 168.16939698082453 -1.5 L 135.22141724041228 -1.5 Z"/><text text-anchor="middle" pointer-events="none" font-size="8px" fill="#000000" x="96.58469849041226" y="3" transform="rotate(180 96.58469849041226 0)" font-family="Helvetica Neue, Helvetica, Arial, sans-serif">AGGREGATED_TO</text></g><g class="relationship" transform="translate(514.6801333882973 -492.146684710473) rotate(270.1495391158654)"><path class="b-outline" fill="#DA7194" stroke="none" d="M 25 1.5 L 30.362940830656072 1.5 L 30.362940830656072 -1.5 L 25 -1.5 Z M 107.63637833065607 1.5 L 112.99931916131214 1.5 L 112.99931916131214 4.5 L 121.99931916131214 0 L 112.99931916131214 -4.5 L 112.99931916131214 -1.5 L 107.63637833065607 -1.5 Z"/><text text-anchor="middle" pointer-events="none" font-size="8px" fill="#000000" x="68.99965958065607" y="3" font-family="Helvetica Neue, Helvetica, Arial, sans-serif">AGGREGATED_TO</text></g><g class="relationship" transform="translate(514.6801333882973 -492.146684710473) rotate(520.0256763169025)"><path class="b-outline" fill="#DA7194" stroke="none" d="M 25 1.5 L 26.39005658222129 1.5 L 26.39005658222129 -1.5 L 25 -1.5 Z M 96.24943158222129 1.5 L 97.63948816444258 1.5 L 97.63948816444258 4.5 L 106.63948816444258 0 L 97.63948816444258 -4.5 L 97.63948816444258 -1.5 L 96.24943158222129 -1.5 Z"/><text text-anchor="middle" pointer-events="none" font-size="8px" fill="#000000" x="61.31974408222129" y="3" transform="rotate(180 61.31974408222129 0)" font-family="Helvetica Neue, Helvetica, Arial, sans-serif">AGGREGATED…</text></g><g class="relationship" transform="translate(436.2012369336743 -4.51048892522996) rotate(201.06795641478226)"><path class="b-outline" fill="#DA7194" stroke="none" d="M 25 1.5 L 61.629030322198304 1.5 L 61.629030322198304 -1.5 L 25 -1.5 Z M 138.9024678221983 1.5 L 175.5314981443966 1.5 L 175.5314981443966 4.5 L 184.5314981443966 0 L 175.5314981443966 -4.5 L 175.5314981443966 -1.5 L 138.9024678221983 -1.5 Z"/><text text-anchor="middle" pointer-events="none" font-size="8px" fill="#000000" x="100.2657490721983" y="3" transform="rotate(180 100.2657490721983 0)" font-family="Helvetica Neue, Helvetica, Arial, sans-serif">AGGREGATED_TO</text></g><g class="relationship" transform="translate(627.5684706090315 -63.20672460405752) rotate(210.19137891031284)"><path class="b-outline" fill="#DA7194" stroke="none" d="M 25 1.5 L 61.82701698034549 1.5 L 61.82701698034549 -1.5 L 25 -1.5 Z M 139.1004544803455 1.5 L 175.92747146069098 1.5 L 175.92747146069098 4.5 L 184.92747146069098 0 L 175.92747146069098 -4.5 L 175.92747146069098 -1.5 L 139.1004544803455 -1.5 Z"/><text text-anchor="middle" pointer-events="none" font-size="8px" fill="#000000" x="100.46373573034549" y="3" transform="rotate(180 100.46373573034549 0)" font-family="Helvetica Neue, Helvetica, Arial, sans-serif">AGGREGATED_TO</text></g><g class="relationship" transform="translate(534.4707361987239 -21.00442855188477) rotate(187.4051706760838)"><path class="b-outline" fill="#DA7194" stroke="none" d="M 25 1.5 L 57.694129549309 1.5 L 57.694129549309 -1.5 L 25 -1.5 Z M 134.967567049309 1.5 L 167.661696598618 1.5 L 167.661696598618 4.5 L 176.661696598618 0 L 167.661696598618 -4.5 L 167.661696598618 -1.5 L 134.967567049309 -1.5 Z"/><text text-anchor="middle" pointer-events="none" font-size="8px" fill="#000000" x="96.330848299309" y="3" transform="rotate(180 96.330848299309 0)" font-family="Helvetica Neue, Helvetica, Arial, sans-serif">AGGREGATED_TO</text></g><g class="relationship" transform="translate(446.11755993500833 -168.7771290242685) rotate(206.96329653762933)"><path class="b-outline" fill="#DA7194" stroke="none" d="M 25 1.5 L 44.119512797791685 1.5 L 44.119512797791685 -1.5 L 25 -1.5 Z M 121.39295029779169 1.5 L 140.51246309558337 1.5 L 140.51246309558337 4.5 L 149.51246309558337 0 L 140.51246309558337 -4.5 L 140.51246309558337 -1.5 L 121.39295029779169 -1.5 Z"/><text text-anchor="middle" pointer-events="none" font-size="8px" fill="#000000" x="82.75623154779169" y="3" transform="rotate(180 82.75623154779169 0)" font-family="Helvetica Neue, Helvetica, Arial, sans-serif">AGGREGATED_TO</text></g><g class="relationship" transform="translate(240.67592984186504 -79.83182057363469) rotate(286.53564861639165)"><path class="b-outline" fill="#DA7194" stroke="none" d="M 25 1.5 L 44.52506636213015 1.5 L 44.52506636213015 -1.5 L 25 -1.5 Z M 121.79850386213015 1.5 L 141.3235702242603 1.5 L 141.3235702242603 4.5 L 150.3235702242603 0 L 141.3235702242603 -4.5 L 141.3235702242603 -1.5 L 121.79850386213015 -1.5 Z"/><text text-anchor="middle" pointer-events="none" font-size="8px" fill="#000000" x="83.16178511213015" y="3" font-family="Helvetica Neue, Helvetica, Arial, sans-serif">AGGREGATED_TO</text></g><g class="relationship" transform="translate(334.4909918932267 -46.995614414423294) rotate(257.6698736723534)"><path class="b-outline" fill="#DA7194" stroke="none" d="M 25 1.5 L 59.68957711714826 1.5 L 59.68957711714826 -1.5 L 25 -1.5 Z M 136.96301461714825 1.5 L 171.65259173429652 1.5 L 171.65259173429652 4.5 L 180.65259173429652 0 L 171.65259173429652 -4.5 L 171.65259173429652 -1.5 L 136.96301461714825 -1.5 Z"/><text text-anchor="middle" pointer-events="none" font-size="8px" fill="#000000" x="98.32629586714826" y="3" transform="rotate(180 98.32629586714826 0)" font-family="Helvetica Neue, Helvetica, Arial, sans-serif">AGGREGATED_TO</text></g><g class="relationship" transform="translate(290.5750961516863 -247.90450567673503) rotate(235.69301319354963)"><path class="b-outline" fill="#DA7194" stroke="none" d="M 25 1.5 L 31.628809728774357 1.5 L 31.628809728774357 -1.5 L 25 -1.5 Z M 108.90224722877436 1.5 L 115.53105695754871 1.5 L 115.53105695754871 4.5 L 124.53105695754871 0 L 115.53105695754871 -4.5 L 115.53105695754871 -1.5 L 108.90224722877436 -1.5 Z"/><text text-anchor="middle" pointer-events="none" font-size="8px" fill="#000000" x="70.26552847877436" y="3" transform="rotate(180 70.26552847877436 0)" font-family="Helvetica Neue, Helvetica, Arial, sans-serif">AGGREGATED_TO</text></g><g class="relationship" transform="translate(290.5750961516863 -247.90450567673503) rotate(196.70258678732176)"><path class="b-outline" fill="#DA7194" stroke="none" d="M 25 1.5 L 31.58684887214619 1.5 L 31.58684887214619 -1.5 L 25 -1.5 Z M 108.86028637214619 1.5 L 115.44713524429238 1.5 L 115.44713524429238 4.5 L 124.44713524429238 0 L 115.44713524429238 -4.5 L 115.44713524429238 -1.5 L 108.86028637214619 -1.5 Z"/><text text-anchor="middle" pointer-events="none" font-size="8px" fill="#000000" x="70.22356762214619" y="3" transform="rotate(180 70.22356762214619 0)" font-family="Helvetica Neue, Helvetica, Arial, sans-serif">AGGREGATED_TO</text></g><g class="relationship" transform="translate(290.5750961516863 -247.90450567673503) rotate(271.38383780513675)"><path class="b-outline" fill="#DA7194" stroke="none" d="M 25 1.5 L 71.45262910496704 1.5 L 71.45262910496704 -1.5 L 25 -1.5 Z M 148.72606660496706 1.5 L 195.1786957099341 1.5 L 195.1786957099341 4.5 L 204.1786957099341 0 L 195.1786957099341 -4.5 L 195.1786957099341 -1.5 L 148.72606660496706 -1.5 Z"/><text text-anchor="middle" pointer-events="none" font-size="8px" fill="#000000" x="110.08934785496704" y="3" font-family="Helvetica Neue, Helvetica, Arial, sans-serif">AGGREGATED_TO</text></g><g class="relationship" transform="translate(514.6801333882973 -492.146684710473) rotate(536.0400708937118)"><path class="b-outline" fill="#DA7194" stroke="none" d="M 25 1.5 L 66.40997941944346 1.5 L 66.40997941944346 -1.5 L 25 -1.5 Z M 143.68341691944346 1.5 L 185.09339633888692 1.5 L 185.09339633888692 4.5 L 194.09339633888692 0 L 185.09339633888692 -4.5 L 185.09339633888692 -1.5 L 143.68341691944346 -1.5 Z"/><text text-anchor="middle" pointer-events="none" font-size="8px" fill="#000000" x="105.04669816944346" y="3" transform="rotate(180 105.04669816944346 0)" font-family="Helvetica Neue, Helvetica, Arial, sans-serif">AGGREGATED_TO</text></g><g class="relationship" transform="translate(296.1098024181144 -477.01635956878255) rotate(262.95570186410674)"><path class="b-outline" fill="#DA7194" stroke="none" d="M 25 1.5 L 32.89239775306642 1.5 L 32.89239775306642 -1.5 L 25 -1.5 Z M 110.16583525306642 1.5 L 118.05823300613284 1.5 L 118.05823300613284 4.5 L 127.05823300613284 0 L 118.05823300613284 -4.5 L 118.05823300613284 -1.5 L 110.16583525306642 -1.5 Z"/><text text-anchor="middle" pointer-events="none" font-size="8px" fill="#000000" x="71.52911650306642" y="3" transform="rotate(180 71.52911650306642 0)" font-family="Helvetica Neue, Helvetica, Arial, sans-serif">AGGREGATED_TO</text></g><g class="relationship" transform="translate(296.1098024181144 -477.01635956878255) rotate(223.58405008195308)"><path class="b-outline" fill="#DA7194" stroke="none" d="M 25 1.5 L 33.700968808605 1.5 L 33.700968808605 -1.5 L 25 -1.5 Z M 110.974406308605 1.5 L 119.67537511721 1.5 L 119.67537511721 4.5 L 128.67537511721 0 L 119.67537511721 -4.5 L 119.67537511721 -1.5 L 110.974406308605 -1.5 Z"/><text text-anchor="middle" pointer-events="none" font-size="8px" fill="#000000" x="72.337687558605" y="3" transform="rotate(180 72.337687558605 0)" font-family="Helvetica Neue, Helvetica, Arial, sans-serif">AGGREGATED_TO</text></g><g class="relationship" transform="translate(-174.53597026258495 -342.16003851542666) rotate(478.23980969801806)"><path class="b-outline" fill="#DA7194" stroke="none" d="M 25 1.5 L 31.91739554582449 1.5 L 31.91739554582449 -1.5 L 25 -1.5 Z M 109.19083304582449 1.5 L 116.10822859164898 1.5 L 116.10822859164898 4.5 L 125.10822859164898 0 L 116.10822859164898 -4.5 L 116.10822859164898 -1.5 L 109.19083304582449 -1.5 Z"/><text text-anchor="middle" pointer-events="none" font-size="8px" fill="#000000" x="70.55411429582449" y="3" transform="rotate(180 70.55411429582449 0)" font-family="Helvetica Neue, Helvetica, Arial, sans-serif">AGGREGATED_TO</text></g><g class="relationship" transform="translate(-245.5616284478324 -209.9184559089139) rotate(216.43956282963006)"><path class="b-outline" fill="#DA7194" stroke="none" d="M 25 1.5 L 40.03221321134569 1.5 L 40.03221321134569 -1.5 L 25 -1.5 Z M 117.30565071134569 1.5 L 132.33786392269138 1.5 L 132.33786392269138 4.5 L 141.33786392269138 0 L 132.33786392269138 -4.5 L 132.33786392269138 -1.5 L 117.30565071134569 -1.5 Z"/><text text-anchor="middle" pointer-events="none" font-size="8px" fill="#000000" x="78.66893196134569" y="3" transform="rotate(180 78.66893196134569 0)" font-family="Helvetica Neue, Helvetica, Arial, sans-serif">AGGREGATED_TO</text></g><g class="relationship" transform="translate(-245.5616284478324 -209.9184559089139) rotate(415.1532260732729)"><path class="b-outline" fill="#DA7194" stroke="none" d="M 25 1.5 L 26.31463613387824 1.5 L 26.31463613387824 -1.5 L 25 -1.5 Z M 100.62322988387824 1.5 L 101.93786601775648 1.5 L 101.93786601775648 4.5 L 110.93786601775648 0 L 101.93786601775648 -4.5 L 101.93786601775648 -1.5 L 100.62322988387824 -1.5 Z"/><text text-anchor="middle" pointer-events="none" font-size="8px" fill="#000000" x="63.46893300887824" y="3" font-family="Helvetica Neue, Helvetica, Arial, sans-serif">AGGREGATED_…</text></g><g class="relationship" transform="translate(-245.5616284478324 -209.9184559089139) rotate(492.07217121160306)"><path class="b-outline" fill="#DA7194" stroke="none" d="M 25 1.5 L 64.10452016966755 1.5 L 64.10452016966755 -1.5 L 25 -1.5 Z M 141.37795766966755 1.5 L 180.4824778393351 1.5 L 180.4824778393351 4.5 L 189.4824778393351 0 L 180.4824778393351 -4.5 L 180.4824778393351 -1.5 L 141.37795766966755 -1.5 Z"/><text text-anchor="middle" pointer-events="none" font-size="8px" fill="#000000" x="102.74123891966755" y="3" transform="rotate(180 102.74123891966755 0)" font-family="Helvetica Neue, Helvetica, Arial, sans-serif">AGGREGATED_TO</text></g><g class="relationship" transform="translate(-379.37775341608733 -308.7189097178118) rotate(279.6937645762069)"><path class="b-outline" fill="#DA7194" stroke="none" d="M 25 1.5 L 41.356428550423104 1.5 L 41.356428550423104 -1.5 L 25 -1.5 Z M 118.6298660504231 1.5 L 134.9862946008462 1.5 L 134.9862946008462 4.5 L 143.9862946008462 0 L 134.9862946008462 -4.5 L 134.9862946008462 -1.5 L 118.6298660504231 -1.5 Z"/><text text-anchor="middle" pointer-events="none" font-size="8px" fill="#000000" x="79.9931473004231" y="3" font-family="Helvetica Neue, Helvetica, Arial, sans-serif">AGGREGATED_TO</text></g><g class="relationship" transform="translate(-350.92348528585285 -475.29238416106375) rotate(254.4888480024258)"><path class="b-outline" fill="#DA7194" stroke="none" d="M 25 1.5 L 33.40854972626987 1.5 L 33.40854972626987 -1.5 L 25 -1.5 Z M 110.68198722626987 1.5 L 119.09053695253974 1.5 L 119.09053695253974 4.5 L 128.09053695253974 0 L 119.09053695253974 -4.5 L 119.09053695253974 -1.5 L 110.68198722626987 -1.5 Z"/><text text-anchor="middle" pointer-events="none" font-size="8px" fill="#000000" x="72.04526847626987" y="3" transform="rotate(180 72.04526847626987 0)" font-family="Helvetica Neue, Helvetica, Arial, sans-serif">AGGREGATED_TO</text></g><g class="relationship" transform="translate(-391.86386468153665 -622.8071218632825) rotate(294.32704460870747)"><path class="b-outline" fill="#DA7194" stroke="none" d="M 25 1.5 L 28.207293956829062 1.5 L 28.207293956829062 -1.5 L 25 -1.5 Z M 105.48073145682906 1.5 L 108.68802541365812 1.5 L 108.68802541365812 4.5 L 117.68802541365812 0 L 108.68802541365812 -4.5 L 108.68802541365812 -1.5 L 105.48073145682906 -1.5 Z"/><text text-anchor="middle" pointer-events="none" font-size="8px" fill="#000000" x="66.84401270682906" y="3" font-family="Helvetica Neue, Helvetica, Arial, sans-serif">AGGREGATED_TO</text></g><g class="relationship" transform="translate(-391.86386468153665 -622.8071218632825) rotate(181.32681484446067)"><path class="b-outline" fill="#DA7194" stroke="none" d="M 25 1.5 L 29.421624137804912 1.5 L 29.421624137804912 -1.5 L 25 -1.5 Z M 106.69506163780491 1.5 L 111.11668577560982 1.5 L 111.11668577560982 4.5 L 120.11668577560982 0 L 111.11668577560982 -4.5 L 111.11668577560982 -1.5 L 106.69506163780491 -1.5 Z"/><text text-anchor="middle" pointer-events="none" font-size="8px" fill="#000000" x="68.05834288780491" y="3" transform="rotate(180 68.05834288780491 0)" font-family="Helvetica Neue, Helvetica, Arial, sans-serif">AGGREGATED_TO</text></g><g class="relationship" transform="translate(-167.88894351377394 -98.3565563526765) rotate(209.41652403003025)"><path class="b-outline" fill="#DA7194" stroke="none" d="M 25 1.5 L 58.10433187597745 1.5 L 58.10433187597745 -1.5 L 25 -1.5 Z M 135.37776937597744 1.5 L 168.4821012519549 1.5 L 168.4821012519549 4.5 L 177.4821012519549 0 L 168.4821012519549 -4.5 L 168.4821012519549 -1.5 L 135.37776937597744 -1.5 Z"/><text text-anchor="middle" pointer-events="none" font-size="8px" fill="#000000" x="96.74105062597745" y="3" transform="rotate(180 96.74105062597745 0)" font-family="Helvetica Neue, Helvetica, Arial, sans-serif">AGGREGATED_TO</text></g><g class="relationship" transform="translate(-344.2654726835571 -197.80665079922562) rotate(216.0448767923325)"><path class="b-outline" fill="#DA7194" stroke="none" d="M 25 1.5 L 50.83861614324262 1.5 L 50.83861614324262 -1.5 L 25 -1.5 Z M 128.11205364324263 1.5 L 153.95066978648524 1.5 L 153.95066978648524 4.5 L 162.95066978648524 0 L 153.95066978648524 -4.5 L 153.95066978648524 -1.5 L 128.11205364324263 -1.5 Z"/><text text-anchor="middle" pointer-events="none" font-size="8px" fill="#000000" x="89.47533489324262" y="3" transform="rotate(180 89.47533489324262 0)" font-family="Helvetica Neue, Helvetica, Arial, sans-serif">AGGREGATED_TO</text></g><g class="relationship" transform="translate(-496.23418300202536 -308.40034572497575) rotate(215.55716601974666)"><path class="b-outline" fill="#DA7194" stroke="none" d="M 25 1.5 L 31.796622485695366 1.5 L 31.796622485695366 -1.5 L 25 -1.5 Z M 109.07005998569537 1.5 L 115.86668247139073 1.5 L 115.86668247139073 4.5 L 124.86668247139073 0 L 115.86668247139073 -4.5 L 115.86668247139073 -1.5 L 109.07005998569537 -1.5 Z"/><text text-anchor="middle" pointer-events="none" font-size="8px" fill="#000000" x="70.43334123569537" y="3" transform="rotate(180 70.43334123569537 0)" font-family="Helvetica Neue, Helvetica, Arial, sans-serif">AGGREGATED_TO</text></g><g class="relationship" transform="translate(-496.23418300202536 -308.40034572497575) rotate(529.0827221736124)"><path class="b-outline" fill="#DA7194" stroke="none" d="M 25 1.5 L 31.615747429807953 1.5 L 31.615747429807953 -1.5 L 25 -1.5 Z M 108.88918492980795 1.5 L 115.5049323596159 1.5 L 115.5049323596159 4.5 L 124.5049323596159 0 L 115.5049323596159 -4.5 L 115.5049323596159 -1.5 L 108.88918492980795 -1.5 Z"/><text text-anchor="middle" pointer-events="none" font-size="8px" fill="#000000" x="70.25246617980795" y="3" transform="rotate(180 70.25246617980795 0)" font-family="Helvetica Neue, Helvetica, Arial, sans-serif">AGGREGATED_TO</text></g><g class="relationship" transform="translate(-389.27907860458055 -50.707816124559386) rotate(185.73290017571435)"><path class="b-outline" fill="#DA7194" stroke="none" d="M 25 1.5 L 66.63482952565538 1.5 L 66.63482952565538 -1.5 L 25 -1.5 Z M 143.9082670256554 1.5 L 185.54309655131075 1.5 L 185.54309655131075 4.5 L 194.54309655131075 0 L 185.54309655131075 -4.5 L 185.54309655131075 -1.5 L 143.9082670256554 -1.5 Z"/><text text-anchor="middle" pointer-events="none" font-size="8px" fill="#000000" x="105.27154827565538" y="3" transform="rotate(180 105.27154827565538 0)" font-family="Helvetica Neue, Helvetica, Arial, sans-serif">AGGREGATED_TO</text></g><g class="relationship" transform="translate(-607.7241028912467 -72.63821985399352) rotate(500.74216351085647)"><path class="b-outline" fill="#DA7194" stroke="none" d="M 25 1.5 L 46.16022848052066 1.5 L 46.16022848052066 -1.5 L 25 -1.5 Z M 123.43366598052066 1.5 L 144.59389446104132 1.5 L 144.59389446104132 4.5 L 153.59389446104132 0 L 144.59389446104132 -4.5 L 144.59389446104132 -1.5 L 123.43366598052066 -1.5 Z"/><text text-anchor="middle" pointer-events="none" font-size="8px" fill="#000000" x="84.79694723052066" y="3" transform="rotate(180 84.79694723052066 0)" font-family="Helvetica Neue, Helvetica, Arial, sans-serif">AGGREGATED_TO</text></g><g class="relationship" transform="translate(-746.0104448177073 40.37800365112812) rotate(445.71649080523355)"><path class="b-outline" fill="#DA7194" stroke="none" d="M 25 1.5 L 31.98263086756714 1.5 L 31.98263086756714 -1.5 L 25 -1.5 Z M 109.25606836756714 1.5 L 116.23869923513428 1.5 L 116.23869923513428 4.5 L 125.23869923513428 0 L 116.23869923513428 -4.5 L 116.23869923513428 -1.5 L 109.25606836756714 -1.5 Z"/><text text-anchor="middle" pointer-events="none" font-size="8px" fill="#000000" x="70.61934961756714" y="3" font-family="Helvetica Neue, Helvetica, Arial, sans-serif">AGGREGATED_TO</text></g><g class="relationship" transform="translate(-746.0104448177073 40.37800365112812) rotate(489.34870632630617)"><path class="b-outline" fill="#DA7194" stroke="none" d="M 25 1.5 L 30.662286637950302 1.5 L 30.662286637950302 -1.5 L 25 -1.5 Z M 107.9357241379503 1.5 L 113.5980107759006 1.5 L 113.5980107759006 4.5 L 122.5980107759006 0 L 113.5980107759006 -4.5 L 113.5980107759006 -1.5 L 107.9357241379503 -1.5 Z"/><text text-anchor="middle" pointer-events="none" font-size="8px" fill="#000000" x="69.2990053879503" y="3" transform="rotate(180 69.2990053879503 0)" font-family="Helvetica Neue, Helvetica, Arial, sans-serif">AGGREGATED_TO</text></g><g class="relationship" transform="translate(-379.37775341608733 -308.7189097178118) rotate(481.69415247174965)"><path class="b-outline" fill="#DA7194" stroke="none" d="M 25 1.5 L 58.997609622924585 1.5 L 58.997609622924585 -1.5 L 25 -1.5 Z M 136.27104712292459 1.5 L 170.26865674584917 1.5 L 170.26865674584917 4.5 L 179.26865674584917 0 L 170.26865674584917 -4.5 L 170.26865674584917 -1.5 L 136.27104712292459 -1.5 Z"/><text text-anchor="middle" pointer-events="none" font-size="8px" fill="#000000" x="97.63432837292459" y="3" transform="rotate(180 97.63432837292459 0)" font-family="Helvetica Neue, Helvetica, Arial, sans-serif">AGGREGATED_TO</text></g><g class="relationship" transform="translate(-486.697403999338 -134.91391345060856) rotate(439.56946312948776)"><path class="b-outline" fill="#DA7194" stroke="none" d="M 25 1.5 L 36.05845186489181 1.5 L 36.05845186489181 -1.5 L 25 -1.5 Z M 113.33188936489181 1.5 L 124.39034122978362 1.5 L 124.39034122978362 4.5 L 133.39034122978362 0 L 124.39034122978362 -4.5 L 124.39034122978362 -1.5 L 113.33188936489181 -1.5 Z"/><text text-anchor="middle" pointer-events="none" font-size="8px" fill="#000000" x="74.69517061489181" y="3" font-family="Helvetica Neue, Helvetica, Arial, sans-serif">AGGREGATED_TO</text></g><g class="relationship" transform="translate(-486.697403999338 -134.91391345060856) rotate(475.6065394640747)"><path class="b-outline" fill="#DA7194" stroke="none" d="M 25 1.5 L 38.49681073596125 1.5 L 38.49681073596125 -1.5 L 25 -1.5 Z M 115.77024823596125 1.5 L 129.2670589719225 1.5 L 129.2670589719225 4.5 L 138.2670589719225 0 L 129.2670589719225 -4.5 L 129.2670589719225 -1.5 L 115.77024823596125 -1.5 Z"/><text text-anchor="middle" pointer-events="none" font-size="8px" fill="#000000" x="77.13352948596125" y="3" transform="rotate(180 77.13352948596125 0)" font-family="Helvetica Neue, Helvetica, Arial, sans-serif">AGGREGATED_TO</text></g><g class="relationship" transform="translate(-167.88894351377394 -98.3565563526765) rotate(393.9733991898434)"><path class="b-outline" fill="#DA7194" stroke="none" d="M 25 1.5 L 52.659670893176724 1.5 L 52.659670893176724 -1.5 L 25 -1.5 Z M 129.93310839317672 1.5 L 157.59277928635345 1.5 L 157.59277928635345 4.5 L 166.59277928635345 0 L 157.59277928635345 -4.5 L 157.59277928635345 -1.5 L 129.93310839317672 -1.5 Z"/><text text-anchor="middle" pointer-events="none" font-size="8px" fill="#000000" x="91.29638964317672" y="3" font-family="Helvetica Neue, Helvetica, Arial, sans-serif">AGGREGATED_TO</text></g><g class="relationship" transform="translate(-9.00160714640306 8.707010824731173) rotate(511.45511898010244)"><path class="b-outline" fill="#DA7194" stroke="none" d="M 25 1.5 L 30.779204087718142 1.5 L 30.779204087718142 -1.5 L 25 -1.5 Z M 108.05264158771814 1.5 L 113.83184567543628 1.5 L 113.83184567543628 4.5 L 122.83184567543628 0 L 113.83184567543628 -4.5 L 113.83184567543628 -1.5 L 108.05264158771814 -1.5 Z"/><text text-anchor="middle" pointer-events="none" font-size="8px" fill="#000000" x="69.41592283771814" y="3" transform="rotate(180 69.41592283771814 0)" font-family="Helvetica Neue, Helvetica, Arial, sans-serif">AGGREGATED_TO</text></g><g class="relationship" transform="translate(-9.00160714640306 8.707010824731173) rotate(472.4024365054164)"><path class="b-outline" fill="#DA7194" stroke="none" d="M 25 1.5 L 32.18949046171532 1.5 L 32.18949046171532 -1.5 L 25 -1.5 Z M 109.46292796171532 1.5 L 116.65241842343065 1.5 L 116.65241842343065 4.5 L 125.65241842343065 0 L 116.65241842343065 -4.5 L 116.65241842343065 -1.5 L 109.46292796171532 -1.5 Z"/><text text-anchor="middle" pointer-events="none" font-size="8px" fill="#000000" x="70.82620921171532" y="3" transform="rotate(180 70.82620921171532 0)" font-family="Helvetica Neue, Helvetica, Arial, sans-serif">AGGREGATED_TO</text></g><g class="relationship" transform="translate(-389.27907860458055 -50.707816124559386) rotate(455.03285878227655)"><path class="b-outline" fill="#DA7194" stroke="none" d="M 25 1.5 L 67.60758548390858 1.5 L 67.60758548390858 -1.5 L 25 -1.5 Z M 144.88102298390857 1.5 L 187.48860846781716 1.5 L 187.48860846781716 4.5 L 196.48860846781716 0 L 187.48860846781716 -4.5 L 187.48860846781716 -1.5 L 144.88102298390857 -1.5 Z"/><text text-anchor="middle" pointer-events="none" font-size="8px" fill="#000000" x="106.24430423390858" y="3" transform="rotate(180 106.24430423390858 0)" font-family="Helvetica Neue, Helvetica, Arial, sans-serif">AGGREGATED_TO</text></g><g class="relationship" transform="translate(-408.7096186203166 169.92685430533226) rotate(478.82673440563826)"><path class="b-outline" fill="#DA7194" stroke="none" d="M 25 1.5 L 33.60096354292645 1.5 L 33.60096354292645 -1.5 L 25 -1.5 Z M 110.87440104292645 1.5 L 119.4753645858529 1.5 L 119.4753645858529 4.5 L 128.4753645858529 0 L 119.4753645858529 -4.5 L 119.4753645858529 -1.5 L 110.87440104292645 -1.5 Z"/><text text-anchor="middle" pointer-events="none" font-size="8px" fill="#000000" x="72.23768229292645" y="3" transform="rotate(180 72.23768229292645 0)" font-family="Helvetica Neue, Helvetica, Arial, sans-serif">AGGREGATED_TO</text></g><g class="relationship" transform="translate(-408.7096186203166 169.92685430533226) rotate(439.8734566604743)"><path class="b-outline" fill="#DA7194" stroke="none" d="M 25 1.5 L 33.20891993598083 1.5 L 33.20891993598083 -1.5 L 25 -1.5 Z M 110.48235743598083 1.5 L 118.69127737196166 1.5 L 118.69127737196166 4.5 L 127.69127737196166 0 L 118.69127737196166 -4.5 L 118.69127737196166 -1.5 L 110.48235743598083 -1.5 Z"/><text text-anchor="middle" pointer-events="none" font-size="8px" fill="#000000" x="71.84563868598083" y="3" font-family="Helvetica Neue, Helvetica, Arial, sans-serif">AGGREGATED_TO</text></g><g class="relationship" transform="translate(203.49533624612803 305.00341647915735) rotate(264.5306557249156)"><path class="b-outline" fill="#DA7194" stroke="none" d="M 25 1.5 L 69.25306143558122 1.5 L 69.25306143558122 -1.5 L 25 -1.5 Z M 146.52649893558123 1.5 L 190.77956037116243 1.5 L 190.77956037116243 4.5 L 199.77956037116243 0 L 190.77956037116243 -4.5 L 190.77956037116243 -1.5 L 146.52649893558123 -1.5 Z"/><text text-anchor="middle" pointer-events="none" font-size="8px" fill="#000000" x="107.88978018558122" y="3" transform="rotate(180 107.88978018558122 0)" font-family="Helvetica Neue, Helvetica, Arial, sans-serif">AGGREGATED_TO</text></g><g class="relationship" transform="translate(334.4909918932267 -46.995614414423294) rotate(499.9235050141492)"><path class="b-outline" fill="#DA7194" stroke="none" d="M 25 1.5 L 56.46010403287049 1.5 L 56.46010403287049 -1.5 L 25 -1.5 Z M 133.7335415328705 1.5 L 165.19364556574098 1.5 L 165.19364556574098 4.5 L 174.19364556574098 0 L 165.19364556574098 -4.5 L 165.19364556574098 -1.5 L 133.7335415328705 -1.5 Z"/><text text-anchor="middle" pointer-events="none" font-size="8px" fill="#000000" x="95.09682278287049" y="3" transform="rotate(180 95.09682278287049 0)" font-family="Helvetica Neue, Helvetica, Arial, sans-serif">AGGREGATED_TO</text></g><g class="relationship" transform="translate(240.67592984186504 -79.83182057363469) rotate(469.99279885007917)"><path class="b-outline" fill="#DA7194" stroke="none" d="M 25 1.5 L 42.56771885776173 1.5 L 42.56771885776173 -1.5 L 25 -1.5 Z M 119.84115635776173 1.5 L 137.40887521552347 1.5 L 137.40887521552347 4.5 L 146.40887521552347 0 L 137.40887521552347 -4.5 L 137.40887521552347 -1.5 L 119.84115635776173 -1.5 Z"/><text text-anchor="middle" pointer-events="none" font-size="8px" fill="#000000" x="81.20443760776173" y="3" transform="rotate(180 81.20443760776173 0)" font-family="Helvetica Neue, Helvetica, Arial, sans-serif">AGGREGATED_TO</text></g><g class="relationship" transform="translate(-9.00160714640306 8.707010824731173) rotate(380.7891396324802)"><path class="b-outline" fill="#DA7194" stroke="none" d="M 25 1.5 L 59.0527829588617 1.5 L 59.0527829588617 -1.5 L 25 -1.5 Z M 136.3262204588617 1.5 L 170.3790034177234 1.5 L 170.3790034177234 4.5 L 179.3790034177234 0 L 170.3790034177234 -4.5 L 170.3790034177234 -1.5 L 136.3262204588617 -1.5 Z"/><text text-anchor="middle" pointer-events="none" font-size="8px" fill="#000000" x="97.6895017088617" y="3" font-family="Helvetica Neue, Helvetica, Arial, sans-serif">AGGREGATED_TO</text></g><g class="relationship" transform="translate(182.07088633017833 81.2472015789852) rotate(503.5048613116142)"><path class="b-outline" fill="#DA7194" stroke="none" d="M 25 1.5 L 30.021536363461934 1.5 L 30.021536363461934 -1.5 L 25 -1.5 Z M 107.29497386346193 1.5 L 112.31651022692387 1.5 L 112.31651022692387 4.5 L 121.31651022692387 0 L 112.31651022692387 -4.5 L 112.31651022692387 -1.5 L 107.29497386346193 -1.5 Z"/><text text-anchor="middle" pointer-events="none" font-size="8px" fill="#000000" x="68.65825511346193" y="3" transform="rotate(180 68.65825511346193 0)" font-family="Helvetica Neue, Helvetica, Arial, sans-serif">AGGREGATED_TO</text></g><g class="relationship" transform="translate(182.07088633017833 81.2472015789852) rotate(463.24269376145355)"><path class="b-outline" fill="#DA7194" stroke="none" d="M 25 1.5 L 28.7646473138485 1.5 L 28.7646473138485 -1.5 L 25 -1.5 Z M 106.0380848138485 1.5 L 109.802732127697 1.5 L 109.802732127697 4.5 L 118.802732127697 0 L 109.802732127697 -4.5 L 109.802732127697 -1.5 L 106.0380848138485 -1.5 Z"/><text text-anchor="middle" pointer-events="none" font-size="8px" fill="#000000" x="67.4013660638485" y="3" transform="rotate(180 67.4013660638485 0)" font-family="Helvetica Neue, Helvetica, Arial, sans-serif">AGGREGATED_TO</text></g></g><g class="layer nodes"><g class="node" aria-label="graph-node73525" transform="translate(-2.878627215166764,599.4703106618103)"><circle class="b-outline" cx="0" cy="0" r="25" fill="#8DCC93" stroke="#5db665" stroke-width="2px"/><text class="caption" text-anchor="middle" pointer-events="none" x="0" y="5" font-size="10px" fill="#2A2C34" font-family="Helvetica Neue, Helvetica, Arial, sans-serif"> 73525</text></g><g class="node" aria-label="graph-node73526" transform="translate(-146.0887585765927,690.0979323037132)"><circle class="b-outline" cx="0" cy="0" r="25" fill="#8DCC93" stroke="#5db665" stroke-width="2px"/><text class="caption" text-anchor="middle" pointer-events="none" x="0" y="5" font-size="10px" fill="#2A2C34" font-family="Helvetica Neue, Helvetica, Arial, sans-serif"> 73526</text></g><g class="node" aria-label="graph-node73527" transform="translate(4.455409668329334,716.3076775713722)"><circle class="b-outline" cx="0" cy="0" r="25" fill="#8DCC93" stroke="#5db665" stroke-width="2px"/><text class="caption" text-anchor="middle" pointer-events="none" x="0" y="5" font-size="10px" fill="#2A2C34" font-family="Helvetica Neue, Helvetica, Arial, sans-serif"> 73527</text></g><g class="node" aria-label="graph-node73528" transform="translate(-123.37292623491189,833.0808002250299)"><circle class="b-outline" cx="0" cy="0" r="25" fill="#8DCC93" stroke="#5db665" stroke-width="2px"/><text class="caption" text-anchor="middle" pointer-events="none" x="0" y="5" font-size="10px" fill="#2A2C34" font-family="Helvetica Neue, Helvetica, Arial, sans-serif"> 73528</text></g><g class="node" aria-label="graph-node73529" transform="translate(126.22402181721124,741.7914086162019)"><circle class="b-outline" cx="0" cy="0" r="25" fill="#8DCC93" stroke="#5db665" stroke-width="2px"/><text class="caption" text-anchor="middle" pointer-events="none" x="0" y="5" font-size="10px" fill="#2A2C34" font-family="Helvetica Neue, Helvetica, Arial, sans-serif"> 73529</text></g><g class="node" aria-label="graph-node73530" transform="translate(279.23352666222064,755.9305724357112)"><circle class="b-outline" cx="0" cy="0" r="25" fill="#8DCC93" stroke="#5db665" stroke-width="2px"/><text class="caption" text-anchor="middle" pointer-events="none" x="0" y="5" font-size="10px" fill="#2A2C34" font-family="Helvetica Neue, Helvetica, Arial, sans-serif"> 73530</text></g><g class="node" aria-label="graph-node73531" transform="translate(256.10999617747206,659.0404289599418)"><circle class="b-outline" cx="0" cy="0" r="25" fill="#8DCC93" stroke="#5db665" stroke-width="2px"/><text class="caption" text-anchor="middle" pointer-events="none" x="0" y="5" font-size="10px" fill="#2A2C34" font-family="Helvetica Neue, Helvetica, Arial, sans-serif"> 73531</text></g><g class="node" aria-label="graph-node73532" transform="translate(157.090633772647,647.28472774514)"><circle class="b-outline" cx="0" cy="0" r="25" fill="#8DCC93" stroke="#5db665" stroke-width="2px"/><text class="caption" text-anchor="middle" pointer-events="none" x="0" y="5" font-size="10px" fill="#2A2C34" font-family="Helvetica Neue, Helvetica, Arial, sans-serif"> 73532</text></g><g class="node" aria-label="graph-node73533" transform="translate(91.16610012496629,449.4072423562793)"><circle class="b-outline" cx="0" cy="0" r="25" fill="#8DCC93" stroke="#5db665" stroke-width="2px"/><text class="caption" text-anchor="middle" pointer-events="none" x="0" y="5" font-size="10px" fill="#2A2C34" font-family="Helvetica Neue, Helvetica, Arial, sans-serif"> 73533</text></g><g class="node" aria-label="graph-node73534" transform="translate(203.49533624612803,305.00341647915735)"><circle class="b-outline" cx="0" cy="0" r="25" fill="#8DCC93" stroke="#5db665" stroke-width="2px"/><text class="caption" text-anchor="middle" pointer-events="none" x="0" y="5" font-size="10px" fill="#2A2C34" font-family="Helvetica Neue, Helvetica, Arial, sans-serif"> 73534</text></g><g class="node" aria-label="graph-node73535" transform="translate(352.1992067705253,325.9858888111624)"><circle class="b-outline" cx="0" cy="0" r="25" fill="#8DCC93" stroke="#5db665" stroke-width="2px"/><text class="caption" text-anchor="middle" pointer-events="none" x="0" y="5" font-size="10px" fill="#2A2C34" font-family="Helvetica Neue, Helvetica, Arial, sans-serif"> 73535</text></g><g class="node" aria-label="graph-node73536" transform="translate(306.4782554979655,414.7956956543584)"><circle class="b-outline" cx="0" cy="0" r="25" fill="#8DCC93" stroke="#5db665" stroke-width="2px"/><text class="caption" text-anchor="middle" pointer-events="none" x="0" y="5" font-size="10px" fill="#2A2C34" font-family="Helvetica Neue, Helvetica, Arial, sans-serif"> 73536</text></g><g class="node" aria-label="graph-node73537" transform="translate(687.6821134394683,224.44507762193481)"><circle class="b-outline" cx="0" cy="0" r="25" fill="#8DCC93" stroke="#5db665" stroke-width="2px"/><text class="caption" text-anchor="middle" pointer-events="none" x="0" y="5" font-size="10px" fill="#2A2C34" font-family="Helvetica Neue, Helvetica, Arial, sans-serif"> 73537</text></g><g class="node" aria-label="graph-node73538" transform="translate(593.2754272207695,109.06384326535293)"><circle class="b-outline" cx="0" cy="0" r="25" fill="#8DCC93" stroke="#5db665" stroke-width="2px"/><text class="caption" text-anchor="middle" pointer-events="none" x="0" y="5" font-size="10px" fill="#2A2C34" font-family="Helvetica Neue, Helvetica, Arial, sans-serif"> 73538</text></g><g class="node" aria-label="graph-node73539" transform="translate(436.2012369336743,-4.51048892522996)"><circle class="b-outline" cx="0" cy="0" r="25" fill="#8DCC93" stroke="#5db665" stroke-width="2px"/><text class="caption" text-anchor="middle" pointer-events="none" x="0" y="5" font-size="10px" fill="#2A2C34" font-family="Helvetica Neue, Helvetica, Arial, sans-serif"> 73539</text></g><g class="node" aria-label="graph-node73540" transform="translate(627.5684706090315,-63.20672460405752)"><circle class="b-outline" cx="0" cy="0" r="25" fill="#8DCC93" stroke="#5db665" stroke-width="2px"/><text class="caption" text-anchor="middle" pointer-events="none" x="0" y="5" font-size="10px" fill="#2A2C34" font-family="Helvetica Neue, Helvetica, Arial, sans-serif"> 73540</text></g><g class="node" aria-label="graph-node73541" transform="translate(534.4707361987239,-21.00442855188477)"><circle class="b-outline" cx="0" cy="0" r="25" fill="#8DCC93" stroke="#5db665" stroke-width="2px"/><text class="caption" text-anchor="middle" pointer-events="none" x="0" y="5" font-size="10px" fill="#2A2C34" font-family="Helvetica Neue, Helvetica, Arial, sans-serif"> 73541</text></g><g class="node" aria-label="graph-node73542" transform="translate(545.6018696046629,-170.41014786232597)"><circle class="b-outline" cx="0" cy="0" r="25" fill="#8DCC93" stroke="#5db665" stroke-width="2px"/><text class="caption" text-anchor="middle" pointer-events="none" x="0" y="5" font-size="10px" fill="#2A2C34" font-family="Helvetica Neue, Helvetica, Arial, sans-serif"> 73542</text></g><g class="node" aria-label="graph-node73544" transform="translate(736.1251493158588,-201.71482168968998)"><circle class="b-outline" cx="0" cy="0" r="25" fill="#8DCC93" stroke="#5db665" stroke-width="2px"/><text class="caption" text-anchor="middle" pointer-events="none" x="0" y="5" font-size="10px" fill="#2A2C34" font-family="Helvetica Neue, Helvetica, Arial, sans-serif"> 73544</text></g><g class="node" aria-label="graph-node73546" transform="translate(644.7856895634104,-161.4273711025761)"><circle class="b-outline" cx="0" cy="0" r="25" fill="#8DCC93" stroke="#5db665" stroke-width="2px"/><text class="caption" text-anchor="middle" pointer-events="none" x="0" y="5" font-size="10px" fill="#2A2C34" font-family="Helvetica Neue, Helvetica, Arial, sans-serif"> 73546</text></g><g class="node" aria-label="graph-node73548" transform="translate(630.5776255940276,-326.49573730595944)"><circle class="b-outline" cx="0" cy="0" r="25" fill="#8DCC93" stroke="#5db665" stroke-width="2px"/><text class="caption" text-anchor="middle" pointer-events="none" x="0" y="5" font-size="10px" fill="#2A2C34" font-family="Helvetica Neue, Helvetica, Arial, sans-serif"> 73548</text></g><g class="node" aria-label="graph-node73549" transform="translate(514.6801333882973,-492.146684710473)"><circle class="b-outline" cx="0" cy="0" r="25" fill="#8DCC93" stroke="#5db665" stroke-width="2px"/><text class="caption" text-anchor="middle" pointer-events="none" x="0" y="5" font-size="10px" fill="#2A2C34" font-family="Helvetica Neue, Helvetica, Arial, sans-serif"> 73549</text></g><g class="node selected" aria-label="graph-node73550" transform="translate(515.0637938158288,-639.1455032042475)"><circle class="b-outline" cx="0" cy="0" r="25" fill="#8DCC93" stroke="#5db665" stroke-width="2px"/><text class="caption" text-anchor="middle" pointer-events="none" x="0" y="5" font-size="10px" fill="#2A2C34" font-family="Helvetica Neue, Helvetica, Arial, sans-serif"> 73550</text></g><g class="node" aria-label="graph-node73551" transform="translate(390.9593135788911,-447.17876737060885)"><circle class="b-outline" cx="0" cy="0" r="25" fill="#8DCC93" stroke="#5db665" stroke-width="2px"/><text class="caption" text-anchor="middle" pointer-events="none" x="0" y="5" font-size="10px" fill="#2A2C34" font-family="Helvetica Neue, Helvetica, Arial, sans-serif"> 73551</text></g><g class="node" aria-label="graph-node73552" transform="translate(240.67592984186504,-79.83182057363469)"><circle class="b-outline" cx="0" cy="0" r="25" fill="#8DCC93" stroke="#5db665" stroke-width="2px"/><text class="caption" text-anchor="middle" pointer-events="none" x="0" y="5" font-size="10px" fill="#2A2C34" font-family="Helvetica Neue, Helvetica, Arial, sans-serif"> 73552</text></g><g class="node" aria-label="graph-node73553" transform="translate(446.11755993500833,-168.7771290242685)"><circle class="b-outline" cx="0" cy="0" r="25" fill="#8DCC93" stroke="#5db665" stroke-width="2px"/><text class="caption" text-anchor="middle" pointer-events="none" x="0" y="5" font-size="10px" fill="#2A2C34" font-family="Helvetica Neue, Helvetica, Arial, sans-serif"> 73553</text></g><g class="node" aria-label="graph-node73554" transform="translate(334.4909918932267,-46.995614414423294)"><circle class="b-outline" cx="0" cy="0" r="25" fill="#8DCC93" stroke="#5db665" stroke-width="2px"/><text class="caption" text-anchor="middle" pointer-events="none" x="0" y="5" font-size="10px" fill="#2A2C34" font-family="Helvetica Neue, Helvetica, Arial, sans-serif"> 73554</text></g><g class="node" aria-label="graph-node73555" transform="translate(290.5750961516863,-247.90450567673503)"><circle class="b-outline" cx="0" cy="0" r="25" fill="#8DCC93" stroke="#5db665" stroke-width="2px"/><text class="caption" text-anchor="middle" pointer-events="none" x="0" y="5" font-size="10px" fill="#2A2C34" font-family="Helvetica Neue, Helvetica, Arial, sans-serif"> 73555</text></g><g class="node" aria-label="graph-node73556" transform="translate(206.29538778928458,-371.42158042023027)"><circle class="b-outline" cx="0" cy="0" r="25" fill="#8DCC93" stroke="#5db665" stroke-width="2px"/><text class="caption" text-anchor="middle" pointer-events="none" x="0" y="5" font-size="10px" fill="#2A2C34" font-family="Helvetica Neue, Helvetica, Arial, sans-serif"> 73556</text></g><g class="node" aria-label="graph-node73557" transform="translate(147.43320725868435,-290.85617475803275)"><circle class="b-outline" cx="0" cy="0" r="25" fill="#8DCC93" stroke="#5db665" stroke-width="2px"/><text class="caption" text-anchor="middle" pointer-events="none" x="0" y="5" font-size="10px" fill="#2A2C34" font-family="Helvetica Neue, Helvetica, Arial, sans-serif"> 73557</text></g><g class="node" aria-label="graph-node73558" transform="translate(296.1098024181144,-477.01635956878255)"><circle class="b-outline" cx="0" cy="0" r="25" fill="#8DCC93" stroke="#5db665" stroke-width="2px"/><text class="caption" text-anchor="middle" pointer-events="none" x="0" y="5" font-size="10px" fill="#2A2C34" font-family="Helvetica Neue, Helvetica, Arial, sans-serif"> 73558</text></g><g class="node" aria-label="graph-node73559" transform="translate(277.46188368557006,-627.926801062709)"><circle class="b-outline" cx="0" cy="0" r="25" fill="#8DCC93" stroke="#5db665" stroke-width="2px"/><text class="caption" text-anchor="middle" pointer-events="none" x="0" y="5" font-size="10px" fill="#2A2C34" font-family="Helvetica Neue, Helvetica, Arial, sans-serif"> 73559</text></g><g class="node" aria-label="graph-node73560" transform="translate(184.792922396612,-582.9629175104809)"><circle class="b-outline" cx="0" cy="0" r="25" fill="#8DCC93" stroke="#5db665" stroke-width="2px"/><text class="caption" text-anchor="middle" pointer-events="none" x="0" y="5" font-size="10px" fill="#2A2C34" font-family="Helvetica Neue, Helvetica, Arial, sans-serif"> 73560</text></g><g class="node" aria-label="graph-node73561" transform="translate(-174.53597026258495,-342.16003851542666)"><circle class="b-outline" cx="0" cy="0" r="25" fill="#8DCC93" stroke="#5db665" stroke-width="2px"/><text class="caption" text-anchor="middle" pointer-events="none" x="0" y="5" font-size="10px" fill="#2A2C34" font-family="Helvetica Neue, Helvetica, Arial, sans-serif"> 73561</text></g><g class="node" aria-label="graph-node73562" transform="translate(-245.5616284478324,-209.9184559089139)"><circle class="b-outline" cx="0" cy="0" r="25" fill="#8DCC93" stroke="#5db665" stroke-width="2px"/><text class="caption" text-anchor="middle" pointer-events="none" x="0" y="5" font-size="10px" fill="#2A2C34" font-family="Helvetica Neue, Helvetica, Arial, sans-serif"> 73562</text></g><g class="node" aria-label="graph-node73563" transform="translate(-379.37775341608733,-308.7189097178118)"><circle class="b-outline" cx="0" cy="0" r="25" fill="#8DCC93" stroke="#5db665" stroke-width="2px"/><text class="caption" text-anchor="middle" pointer-events="none" x="0" y="5" font-size="10px" fill="#2A2C34" font-family="Helvetica Neue, Helvetica, Arial, sans-serif"> 73563</text></g><g class="node" aria-label="graph-node73564" transform="translate(-167.88894351377394,-98.3565563526765)"><circle class="b-outline" cx="0" cy="0" r="25" fill="#8DCC93" stroke="#5db665" stroke-width="2px"/><text class="caption" text-anchor="middle" pointer-events="none" x="0" y="5" font-size="10px" fill="#2A2C34" font-family="Helvetica Neue, Helvetica, Arial, sans-serif"> 73564</text></g><g class="node" aria-label="graph-node73565" transform="translate(-389.27907860458055,-50.707816124559386)"><circle class="b-outline" cx="0" cy="0" r="25" fill="#8DCC93" stroke="#5db665" stroke-width="2px"/><text class="caption" text-anchor="middle" pointer-events="none" x="0" y="5" font-size="10px" fill="#2A2C34" font-family="Helvetica Neue, Helvetica, Arial, sans-serif"> 73565</text></g><g class="node" aria-label="graph-node73566" transform="translate(-350.92348528585285,-475.29238416106375)"><circle class="b-outline" cx="0" cy="0" r="25" fill="#8DCC93" stroke="#5db665" stroke-width="2px"/><text class="caption" text-anchor="middle" pointer-events="none" x="0" y="5" font-size="10px" fill="#2A2C34" font-family="Helvetica Neue, Helvetica, Arial, sans-serif"> 73566</text></g><g class="node" aria-label="graph-node73567" transform="translate(-391.86386468153665,-622.8071218632825)"><circle class="b-outline" cx="0" cy="0" r="25" fill="#8DCC93" stroke="#5db665" stroke-width="2px"/><text class="caption" text-anchor="middle" pointer-events="none" x="0" y="5" font-size="10px" fill="#2A2C34" font-family="Helvetica Neue, Helvetica, Arial, sans-serif"> 73567</text></g><g class="node" aria-label="graph-node73568" transform="translate(-333.0843158252025,-752.8257252733122)"><circle class="b-outline" cx="0" cy="0" r="25" fill="#8DCC93" stroke="#5db665" stroke-width="2px"/><text class="caption" text-anchor="middle" pointer-events="none" x="0" y="5" font-size="10px" fill="#2A2C34" font-family="Helvetica Neue, Helvetica, Arial, sans-serif"> 73568</text></g><g class="node" aria-label="graph-node73569" transform="translate(-536.9416420612368,-626.1673303483658)"><circle class="b-outline" cx="0" cy="0" r="25" fill="#8DCC93" stroke="#5db665" stroke-width="2px"/><text class="caption" text-anchor="middle" pointer-events="none" x="0" y="5" font-size="10px" fill="#2A2C34" font-family="Helvetica Neue, Helvetica, Arial, sans-serif"> 73569</text></g><g class="node" aria-label="graph-node73570" transform="translate(-344.2654726835571,-197.80665079922562)"><circle class="b-outline" cx="0" cy="0" r="25" fill="#8DCC93" stroke="#5db665" stroke-width="2px"/><text class="caption" text-anchor="middle" pointer-events="none" x="0" y="5" font-size="10px" fill="#2A2C34" font-family="Helvetica Neue, Helvetica, Arial, sans-serif"> 73570</text></g><g class="node" aria-label="graph-node73571" transform="translate(-496.23418300202536,-308.40034572497575)"><circle class="b-outline" cx="0" cy="0" r="25" fill="#8DCC93" stroke="#5db665" stroke-width="2px"/><text class="caption" text-anchor="middle" pointer-events="none" x="0" y="5" font-size="10px" fill="#2A2C34" font-family="Helvetica Neue, Helvetica, Arial, sans-serif"> 73571</text></g><g class="node" aria-label="graph-node73572" transform="translate(-618.1560832425392,-395.55006033565496)"><circle class="b-outline" cx="0" cy="0" r="25" fill="#8DCC93" stroke="#5db665" stroke-width="2px"/><text class="caption" text-anchor="middle" pointer-events="none" x="0" y="5" font-size="10px" fill="#2A2C34" font-family="Helvetica Neue, Helvetica, Arial, sans-serif"> 73572</text></g><g class="node" aria-label="graph-node73573" transform="translate(-643.0333220785865,-280.0853750162888)"><circle class="b-outline" cx="0" cy="0" r="25" fill="#8DCC93" stroke="#5db665" stroke-width="2px"/><text class="caption" text-anchor="middle" pointer-events="none" x="0" y="5" font-size="10px" fill="#2A2C34" font-family="Helvetica Neue, Helvetica, Arial, sans-serif"> 73573</text></g><g class="node" aria-label="graph-node73574" transform="translate(-607.7241028912467,-72.63821985399352)"><circle class="b-outline" cx="0" cy="0" r="25" fill="#8DCC93" stroke="#5db665" stroke-width="2px"/><text class="caption" text-anchor="middle" pointer-events="none" x="0" y="5" font-size="10px" fill="#2A2C34" font-family="Helvetica Neue, Helvetica, Arial, sans-serif"> 73574</text></g><g class="node" aria-label="graph-node73575" transform="translate(-746.0104448177073,40.37800365112812)"><circle class="b-outline" cx="0" cy="0" r="25" fill="#8DCC93" stroke="#5db665" stroke-width="2px"/><text class="caption" text-anchor="middle" pointer-events="none" x="0" y="5" font-size="10px" fill="#2A2C34" font-family="Helvetica Neue, Helvetica, Arial, sans-serif"> 73575</text></g><g class="node" aria-label="graph-node73576" transform="translate(-734.7888587051526,190.19703699797515)"><circle class="b-outline" cx="0" cy="0" r="25" fill="#8DCC93" stroke="#5db665" stroke-width="2px"/><text class="caption" text-anchor="middle" pointer-events="none" x="0" y="5" font-size="10px" fill="#2A2C34" font-family="Helvetica Neue, Helvetica, Arial, sans-serif"> 73576</text></g><g class="node" aria-label="graph-node73577" transform="translate(-839.5932623704141,154.51576709469512)"><circle class="b-outline" cx="0" cy="0" r="25" fill="#8DCC93" stroke="#5db665" stroke-width="2px"/><text class="caption" text-anchor="middle" pointer-events="none" x="0" y="5" font-size="10px" fill="#2A2C34" font-family="Helvetica Neue, Helvetica, Arial, sans-serif"> 73577</text></g><g class="node" aria-label="graph-node73578" transform="translate(-486.697403999338,-134.91391345060856)"><circle class="b-outline" cx="0" cy="0" r="25" fill="#8DCC93" stroke="#5db665" stroke-width="2px"/><text class="caption" text-anchor="middle" pointer-events="none" x="0" y="5" font-size="10px" fill="#2A2C34" font-family="Helvetica Neue, Helvetica, Arial, sans-serif"> 73578</text></g><g class="node" aria-label="graph-node73579" transform="translate(-458.0218887674884,20.859046401463516)"><circle class="b-outline" cx="0" cy="0" r="25" fill="#8DCC93" stroke="#5db665" stroke-width="2px"/><text class="caption" text-anchor="middle" pointer-events="none" x="0" y="5" font-size="10px" fill="#2A2C34" font-family="Helvetica Neue, Helvetica, Arial, sans-serif"> 73579</text></g><g class="node" aria-label="graph-node73580" transform="translate(-557.2595781821935,12.317578153360389)"><circle class="b-outline" cx="0" cy="0" r="25" fill="#8DCC93" stroke="#5db665" stroke-width="2px"/><text class="caption" text-anchor="middle" pointer-events="none" x="0" y="5" font-size="10px" fill="#2A2C34" font-family="Helvetica Neue, Helvetica, Arial, sans-serif"> 73580</text></g><g class="node" aria-label="graph-node73581" transform="translate(-9.00160714640306,8.707010824731173)"><circle class="b-outline" cx="0" cy="0" r="25" fill="#8DCC93" stroke="#5db665" stroke-width="2px"/><text class="caption" text-anchor="middle" pointer-events="none" x="0" y="5" font-size="10px" fill="#2A2C34" font-family="Helvetica Neue, Helvetica, Arial, sans-serif"> 73581</text></g><g class="node" aria-label="graph-node73582" transform="translate(-138.86346814595024,79.34801629280403)"><circle class="b-outline" cx="0" cy="0" r="25" fill="#8DCC93" stroke="#5db665" stroke-width="2px"/><text class="caption" text-anchor="middle" pointer-events="none" x="0" y="5" font-size="10px" fill="#2A2C34" font-family="Helvetica Neue, Helvetica, Arial, sans-serif"> 73582</text></g><g class="node" aria-label="graph-node73583" transform="translate(-66.41670398570801,147.98966527876456)"><circle class="b-outline" cx="0" cy="0" r="25" fill="#8DCC93" stroke="#5db665" stroke-width="2px"/><text class="caption" text-anchor="middle" pointer-events="none" x="0" y="5" font-size="10px" fill="#2A2C34" font-family="Helvetica Neue, Helvetica, Arial, sans-serif"> 73583</text></g><g class="node" aria-label="graph-node73584" transform="translate(-408.7096186203166,169.92685430533226)"><circle class="b-outline" cx="0" cy="0" r="25" fill="#8DCC93" stroke="#5db665" stroke-width="2px"/><text class="caption" text-anchor="middle" pointer-events="none" x="0" y="5" font-size="10px" fill="#2A2C34" font-family="Helvetica Neue, Helvetica, Arial, sans-serif"> 73584</text></g><g class="node" aria-label="graph-node73585" transform="translate(-482.7096855280697,304.38382746927243)"><circle class="b-outline" cx="0" cy="0" r="25" fill="#8DCC93" stroke="#5db665" stroke-width="2px"/><text class="caption" text-anchor="middle" pointer-events="none" x="0" y="5" font-size="10px" fill="#2A2C34" font-family="Helvetica Neue, Helvetica, Arial, sans-serif"> 73585</text></g><g class="node" aria-label="graph-node73586" transform="translate(-381.86301119569805,320.2394813706249)"><circle class="b-outline" cx="0" cy="0" r="25" fill="#8DCC93" stroke="#5db665" stroke-width="2px"/><text class="caption" text-anchor="middle" pointer-events="none" x="0" y="5" font-size="10px" fill="#2A2C34" font-family="Helvetica Neue, Helvetica, Arial, sans-serif"> 73586</text></g><g class="node" aria-label="graph-node73587" transform="translate(182.07088633017833,81.2472015789852)"><circle class="b-outline" cx="0" cy="0" r="25" fill="#8DCC93" stroke="#5db665" stroke-width="2px"/><text class="caption" text-anchor="middle" pointer-events="none" x="0" y="5" font-size="10px" fill="#2A2C34" font-family="Helvetica Neue, Helvetica, Arial, sans-serif"> 73587</text></g><g class="node" aria-label="graph-node73588" transform="translate(64.44597184478462,168.26961626215368)"><circle class="b-outline" cx="0" cy="0" r="25" fill="#8DCC93" stroke="#5db665" stroke-width="2px"/><text class="caption" text-anchor="middle" pointer-events="none" x="0" y="5" font-size="10px" fill="#2A2C34" font-family="Helvetica Neue, Helvetica, Arial, sans-serif"> 73588</text></g><g class="node" aria-label="graph-node73589" transform="translate(149.12909344795804,221.22600014896537)"><circle class="b-outline" cx="0" cy="0" r="25" fill="#8DCC93" stroke="#5db665" stroke-width="2px"/><text class="caption" text-anchor="middle" pointer-events="none" x="0" y="5" font-size="10px" fill="#2A2C34" font-family="Helvetica Neue, Helvetica, Arial, sans-serif"> 73589</text></g></g></svg>